<svg width="581" height="408" viewBox="0 0 581 408" fill="none" xmlns="http://www.w3.org/2000/svg">
<path opacity="0.3" d="M287.586 395.821C423.878 395.821 534.364 381.948 534.364 364.834C534.364 347.72 423.878 333.847 287.586 333.847C151.294 333.847 40.808 347.72 40.808 364.834C40.808 381.948 151.294 395.821 287.586 395.821Z" fill="#B4D8F1"/>
<path d="M156.022 35.9629H148.622V58.8895H156.022V35.9629Z" fill="#037EE6"/>
<path d="M166.594 25.4312H159.195V58.8895H166.594V25.4312Z" fill="#FCEC6D"/>
<path d="M187.09 20.9485H179.691V58.8895H187.09V20.9485Z" fill="#037EE6"/>
<path d="M197.662 16.9519H190.263V58.8895H197.662V16.9519Z" fill="#FCEC6D"/>
<path d="M218.145 34.0861H210.746V58.8895H218.145V34.0861Z" fill="#037EE6"/>
<path d="M228.717 11.0245H221.318V58.8895H228.717V11.0245Z" fill="#FCEC6D"/>
<path d="M249.213 3.76035H241.814V58.8895H249.213V3.76035Z" fill="#037EE6"/>
<path d="M259.785 17.0194H252.386V58.8895H259.785V17.0194Z" fill="#FCEC6D"/>
<path d="M278.999 242.829C267.684 242.829 258.489 251.605 258.489 262.38C258.489 273.155 267.684 281.931 278.999 281.931C290.314 281.931 299.509 273.155 299.509 262.38C299.509 251.605 290.314 242.829 278.999 242.829ZM260.447 263.298H268.157C268.292 266.39 269.088 269.185 270.182 271.629H263.147C261.568 269.185 260.609 266.35 260.447 263.298ZM279.958 251.268V245.718C281.159 246.906 282.888 248.81 284.413 251.268H279.958ZM285.466 253.09C286.722 255.507 287.667 258.343 287.829 261.475H279.971V253.09H285.48H285.466ZM278.054 245.61V251.268H273.477C275.07 248.729 276.852 246.785 278.054 245.61ZM278.054 253.09V261.475H270.074C270.236 258.343 271.181 255.521 272.437 253.09H278.054ZM268.157 261.475H260.461C260.623 258.41 261.608 255.561 263.201 253.09H270.29C269.129 255.534 268.305 258.356 268.17 261.475H268.157ZM270.074 263.298H278.054V271.629H272.315C271.127 269.225 270.223 266.404 270.074 263.298ZM278.054 273.452V279.487C276.92 278.38 275.002 276.287 273.315 273.452H278.054ZM279.958 279.366V273.452H284.589C282.955 276.193 281.105 278.231 279.958 279.366ZM279.958 271.629V263.298H287.816C287.654 266.404 286.763 269.212 285.575 271.629H279.958ZM289.733 263.298H297.551C297.389 266.336 296.43 269.171 294.85 271.629H287.708C288.802 269.198 289.598 266.39 289.733 263.298ZM289.733 261.475C289.598 258.37 288.761 255.534 287.6 253.09H294.81C296.403 255.548 297.389 258.41 297.551 261.475H289.733ZM293.473 251.268H286.668C285.075 248.473 283.185 246.299 281.753 244.868C286.466 245.543 290.611 247.892 293.473 251.268ZM276.11 244.881C274.692 246.312 272.801 248.486 271.222 251.268H264.525C267.36 247.919 271.451 245.583 276.11 244.881ZM264.484 273.438H271.087C272.612 276.233 274.408 278.393 275.772 279.825C271.235 279.055 267.266 276.733 264.498 273.438H264.484ZM282.104 279.852C283.468 278.42 285.277 276.247 286.803 273.438H293.527C290.732 276.773 286.709 279.109 282.104 279.852Z" fill="white"/>
<path d="M308.892 263.606L306.295 254.109H307.464L309.448 261.844H309.541L311.563 254.109H312.861L314.883 261.844H314.976L316.961 254.109H318.129L315.532 263.606H314.345L312.249 256.038H312.175L310.079 263.606H308.892ZM321.287 263.606L318.69 254.109H319.859L321.844 261.844H321.936L323.958 254.109H325.257L327.278 261.844H327.371L329.356 254.109H330.524L327.928 263.606H326.74L324.644 256.038H324.57L322.474 263.606H321.287ZM333.682 263.606L331.086 254.109H332.254L334.239 261.844H334.332L336.353 254.109H337.652L339.674 261.844H339.766L341.751 254.109H342.92L340.323 263.606H339.136L337.04 256.038H336.966L334.87 263.606H333.682Z" fill="white"/>
<path d="M495.37 354.613H96.4503L113.49 341.61H478.317L495.37 354.613Z" fill="#FCEC6D"/>
<path d="M482.557 338.41C482.557 341.273 479.951 343.595 476.751 343.595H115.07C111.87 343.595 109.264 341.273 109.264 338.41V119.622C109.264 116.76 111.87 114.437 115.07 114.437H476.751C479.951 114.437 482.557 116.76 482.557 119.622V338.41Z" fill="#037EE6"/>
<path d="M471.404 331.187H120.417V126.832H471.404V331.187Z" fill="#B4D8F1"/>
<path d="M480.41 373.435H111.397C102.243 373.435 94.8166 366.009 94.8166 356.854C94.8166 355.234 96.1398 353.911 97.76 353.911H494.047C495.667 353.911 496.991 355.234 496.991 356.854C496.991 366.009 489.564 373.435 480.41 373.435Z" fill="#037EE6"/>
<path d="M322.719 353.83C322.719 359.487 318.142 364.078 312.484 364.078H279.323C273.666 364.078 269.075 359.487 269.075 353.83" fill="white"/>
<path d="M439.269 147.612H152.538C145.275 147.612 139.387 153.5 139.387 160.763V167.663C139.387 174.926 145.275 180.814 152.538 180.814H439.269C446.532 180.814 452.42 174.926 452.42 167.663V160.763C452.42 153.5 446.532 147.612 439.269 147.612Z" fill="white"/>
<path d="M432.032 166.704C429.399 169.337 425.132 169.337 422.5 166.704C419.867 164.071 419.867 159.804 422.5 157.171C425.132 154.538 429.399 154.538 432.032 157.171C434.665 159.804 434.665 164.071 432.032 166.704Z" stroke="white" stroke-width="2.1764" stroke-miterlimit="10" stroke-linecap="round"/>
<path d="M422.5 166.704L416.788 172.429" stroke="white" stroke-width="2.1764" stroke-miterlimit="10" stroke-linecap="round"/>
<path d="M443.522 195.868H320.734C317.908 195.868 315.617 198.16 315.617 200.986V303.129C315.617 305.956 317.908 308.247 320.734 308.247H443.522C446.349 308.247 448.64 305.956 448.64 303.129V200.986C448.64 198.16 446.349 195.868 443.522 195.868Z" fill="#037EE6"/>
<path d="M415.924 250.323C417.261 251.092 417.261 253.023 415.924 253.806L388.906 269.401L361.888 284.996C360.552 285.766 358.878 284.807 358.878 283.254V220.847C358.878 219.308 360.552 218.336 361.888 219.106L388.906 234.701L415.924 250.296V250.323Z" fill="white"/>
<path d="M287.316 200.216H150.445C149.618 200.216 148.947 200.887 148.947 201.715V202.498C148.947 203.326 149.618 203.997 150.445 203.997H287.316C288.144 203.997 288.815 203.326 288.815 202.498V201.715C288.815 200.887 288.144 200.216 287.316 200.216Z" fill="#FCEC6D"/>
<path d="M263.566 209.978H150.445C149.618 209.978 148.947 210.649 148.947 211.477V212.26C148.947 213.088 149.618 213.759 150.445 213.759H263.566C264.394 213.759 265.065 213.088 265.065 212.26V211.477C265.065 210.649 264.394 209.978 263.566 209.978Z" fill="#FCEC6D"/>
<path d="M263.566 219.727H150.445C149.618 219.727 148.947 220.398 148.947 221.225V222.009C148.947 222.836 149.618 223.507 150.445 223.507H263.566C264.394 223.507 265.065 222.836 265.065 222.009V221.225C265.065 220.398 264.394 219.727 263.566 219.727Z" fill="#FCEC6D"/>
<path d="M276.879 306.37V243.22C276.879 241.296 275.32 239.737 273.396 239.737H152.43C150.506 239.737 148.947 241.296 148.947 243.22V306.37C148.947 308.294 150.506 309.853 152.43 309.853H273.396C275.32 309.853 276.879 308.294 276.879 306.37Z" fill="white"/>
<path d="M188.103 289.776H178.759V299.821H188.103V289.776Z" fill="#037EE6"/>
<path d="M202.847 279.244H193.504V299.821H202.847V279.244Z" fill="#FCEC6D"/>
<path d="M217.591 282.755H208.248V299.821H217.591V282.755Z" fill="#037EE6"/>
<path d="M232.336 272.223H222.992V299.821H232.336V272.223Z" fill="#FCEC6D"/>
<path d="M247.08 261.691H237.737V299.821H247.08V261.691Z" fill="#037EE6"/>
<path d="M179.164 279.001L202.401 261.867L212.717 270.265L242.773 248.729" stroke="#234F70" stroke-width="1.0882" stroke-miterlimit="10"/>
<path d="M244.596 247.055L243.907 248.959L243.205 250.863L241.909 249.296L240.612 247.744L242.611 247.406L244.596 247.055Z" fill="#234F70"/>
<path d="M73.9693 284.631C77.7634 291.572 86.5803 293.934 93.3179 289.816L228.569 207.332L222.56 196.328L80.0588 265.539C72.9567 268.996 70.1753 277.691 73.9558 284.618L73.9693 284.631Z" fill="#FCEC6D"/>
<path d="M376.106 119.609C351.951 75.4161 296.579 59.146 252.4 83.2878C208.207 107.403 191.978 162.815 216.093 206.994C240.234 251.16 295.607 267.416 339.785 243.301C383.978 219.16 400.248 163.774 376.106 119.609ZM226.935 201.067C206.074 162.869 220.103 114.991 258.327 94.13C296.525 73.2558 344.403 87.3115 365.264 125.509C386.138 163.706 372.069 211.585 333.885 232.459C295.688 253.32 247.809 239.291 226.935 201.067Z" fill="#303030"/>
<path d="M368.802 123.592C346.847 83.4499 296.538 68.6785 256.396 90.5925C216.255 112.506 201.51 162.842 223.411 202.998C245.352 243.126 295.647 257.884 335.802 235.983C375.944 214.042 390.715 163.72 368.802 123.592ZM333.899 232.459C295.701 253.32 247.823 239.291 226.948 201.067C206.088 162.869 220.116 114.991 258.341 94.13C296.538 73.2558 344.417 87.3115 365.277 125.509C386.152 163.706 372.083 211.585 333.899 232.459Z" fill="#303030"/>
<path opacity="0.15" d="M336.996 230.961C374.368 208.373 386.352 159.765 363.763 122.393C341.175 85.0208 292.567 73.0366 255.195 95.6254C217.823 118.214 205.839 166.822 228.427 204.194C251.016 241.566 299.624 253.55 336.996 230.961Z" fill="url(#paint0_radial_1_4)"/>
<path style="mix-blend-mode:screen" opacity="0.5" d="M296.093 215.555C324.959 215.555 348.359 192.154 348.359 163.288C348.359 134.422 324.959 111.021 296.093 111.021C267.227 111.021 243.826 134.422 243.826 163.288C243.826 192.154 267.227 215.555 296.093 215.555Z" fill="url(#paint1_radial_1_4)"/>
<path d="M271.119 177.095C269.424 177.095 267.892 176.805 266.522 176.225C265.176 175.645 264.108 174.809 263.318 173.718C262.529 172.627 262.123 171.338 262.1 169.852H267.323C267.393 170.851 267.741 171.64 268.368 172.22C269.018 172.801 269.9 173.091 271.014 173.091C272.152 173.091 273.045 172.824 273.696 172.29C274.346 171.733 274.671 171.013 274.671 170.131C274.671 169.411 274.45 168.819 274.009 168.355C273.568 167.891 273.011 167.531 272.337 167.276C271.687 166.997 270.782 166.695 269.621 166.37C268.043 165.906 266.754 165.453 265.756 165.012C264.781 164.548 263.934 163.863 263.214 162.958C262.518 162.029 262.169 160.799 262.169 159.266C262.169 157.827 262.529 156.574 263.249 155.506C263.968 154.438 264.978 153.625 266.278 153.068C267.578 152.488 269.064 152.198 270.736 152.198C273.243 152.198 275.274 152.813 276.83 154.043C278.408 155.25 279.279 156.945 279.441 159.127H274.079C274.032 158.291 273.672 157.607 272.999 157.073C272.349 156.515 271.478 156.237 270.387 156.237C269.436 156.237 268.669 156.481 268.089 156.968C267.532 157.456 267.253 158.164 267.253 159.092C267.253 159.742 267.462 160.288 267.88 160.729C268.321 161.147 268.855 161.495 269.482 161.774C270.132 162.029 271.037 162.331 272.198 162.679C273.777 163.143 275.065 163.608 276.063 164.072C277.062 164.536 277.921 165.233 278.64 166.161C279.36 167.09 279.72 168.309 279.72 169.818C279.72 171.118 279.383 172.325 278.71 173.439C278.037 174.553 277.05 175.447 275.75 176.12C274.45 176.77 272.906 177.095 271.119 177.095ZM288.821 156.481V162.575H297.005V166.44H288.821V172.882H298.049V176.852H283.946V152.511H298.049V156.481H288.821ZM328.98 152.546V176.852H324.104V161.042L317.593 176.852H313.901L307.355 161.042V176.852H302.48V152.546H308.016L315.747 170.619L323.478 152.546H328.98Z" fill="#037EE6"/>
<g opacity="0.8">
<path d="M182.148 87.1224H38.6478C37.7529 87.1224 37.0275 87.8478 37.0275 88.7427V164.827C37.0275 165.722 37.7529 166.447 38.6478 166.447H182.148C183.043 166.447 183.769 165.722 183.769 164.827V88.7427C183.769 87.8478 183.043 87.1224 182.148 87.1224Z" fill="#B4D8F1"/>
<path d="M171.9 95.0482H152.862C151.9 95.0482 151.12 95.828 151.12 96.79V97.7081C151.12 98.6701 151.9 99.4499 152.862 99.4499H171.9C172.862 99.4499 173.642 98.6701 173.642 97.7081V96.79C173.642 95.828 172.862 95.0482 171.9 95.0482Z" fill="white"/>
<path d="M58.2393 126.103C58.2393 129.452 59.63 132.49 61.8714 134.636L53.9861 142.522C49.733 138.349 47.1001 132.544 47.1001 126.103C47.1001 113.398 57.4022 103.095 70.1077 103.095V114.235C63.5592 114.235 58.2393 119.555 58.2393 126.103Z" fill="#037EE6"/>
<path d="M93.1153 126.103H81.9761C81.9761 119.555 76.6562 114.235 70.1077 114.235V103.095C82.8132 103.095 93.1153 113.398 93.1153 126.103Z" fill="#FCEC6D"/>
<path d="M93.1153 126.103C93.1153 138.809 82.8132 149.111 70.1077 149.111C63.8292 149.111 58.1313 146.599 53.9862 142.508L61.8714 134.623C64.0047 136.689 66.9077 137.958 70.1212 137.958C76.6697 137.958 81.9896 132.638 81.9896 126.09H93.1288L93.1153 126.103Z" fill="white"/>
<path d="M173.021 109.738H102.877C102.534 109.738 102.256 110.017 102.256 110.36V112.088C102.256 112.431 102.534 112.709 102.877 112.709H173.021C173.364 112.709 173.642 112.431 173.642 112.088V110.36C173.642 110.017 173.364 109.738 173.021 109.738Z" fill="white"/>
<path d="M102.877 122.633L173.021 122.633C173.364 122.633 173.642 122.355 173.642 122.012V120.284C173.642 119.941 173.364 119.663 173.021 119.663L102.877 119.663C102.534 119.663 102.256 119.941 102.256 120.284V122.012C102.256 122.355 102.534 122.633 102.877 122.633Z" fill="white"/>
<path d="M102.877 132.544H173.021C173.364 132.544 173.642 132.265 173.642 131.922V130.194C173.642 129.851 173.364 129.573 173.021 129.573H102.877C102.534 129.573 102.256 129.851 102.256 130.194V131.922C102.256 132.265 102.534 132.544 102.877 132.544Z" fill="white"/>
<path d="M102.877 142.468H173.021C173.364 142.468 173.642 142.19 173.642 141.847V140.118C173.642 139.775 173.364 139.497 173.021 139.497H102.877C102.534 139.497 102.256 139.775 102.256 140.118V141.847C102.256 142.19 102.534 142.468 102.877 142.468Z" fill="white"/>
</g>
<path d="M503.755 132.503L486.067 105.985L510.412 108.915L503.755 132.503Z" fill="#037EE6"/>
<path d="M550 101.678L525.534 98.8423L532.312 75.173L550 101.678Z" fill="#037EE6"/>
<path d="M549.406 103.149L505.335 132.53L511.938 109.09L522.24 110.333L525.102 100.327L549.406 103.149Z" fill="#FCEC6D"/>
<path d="M530.732 75.1325L523.995 98.6667L523.576 100.138L521.119 108.672L512.356 107.619L511.586 107.524L510.83 107.443L486.662 104.527L530.732 75.1325Z" fill="#FCEC6D"/>
<path d="M483.137 155.619C451.867 155.619 426.415 181.07 426.415 212.341C426.415 243.612 451.867 269.063 483.137 269.063C514.408 269.063 539.86 243.612 539.86 212.341C539.86 181.07 514.408 155.619 483.137 155.619Z" fill="white"/>
<path d="M483.138 167.244C508.008 167.244 528.235 187.484 528.235 212.341C528.235 237.198 507.995 257.438 483.138 257.438C458.28 257.438 438.04 237.198 438.04 212.341C438.04 187.484 458.28 167.244 483.138 167.244ZM483.138 155.443C451.759 155.443 426.24 180.962 426.24 212.341C426.24 243.72 451.759 269.239 483.138 269.239C514.516 269.239 540.035 243.72 540.035 212.341C540.035 180.962 514.516 155.443 483.138 155.443Z" fill="#303030"/>
<path d="M483.137 178.41C464.397 178.41 449.193 193.6 449.193 212.355C449.193 231.109 464.383 246.299 483.137 246.299C501.892 246.299 517.082 231.109 517.082 212.355C517.082 193.6 501.892 178.41 483.137 178.41ZM483.137 234.849C470.716 234.849 460.629 224.777 460.629 212.341C460.629 199.906 470.702 189.833 483.137 189.833C495.573 189.833 505.646 199.906 505.646 212.341C505.646 224.777 495.573 234.849 483.137 234.849Z" fill="#037EE6"/>
<path d="M494.064 214.912C495.491 208.867 491.747 202.809 485.701 201.382C479.656 199.955 473.598 203.699 472.171 209.745C470.744 215.791 474.488 221.848 480.534 223.275C486.58 224.702 492.637 220.958 494.064 214.912Z" fill="#037EE6"/>
<path d="M535.647 157.86L534.783 153.539C534.391 151.555 531.934 150.812 530.516 152.243L519.85 162.91C519.256 163.504 518.986 164.368 519.161 165.192L520.484 171.821L518.364 173.941L483.813 208.493L479.316 204.375V216.176H491.117L486.999 211.679L521.551 177.128L523.671 175.008L530.3 176.331C531.124 176.493 531.988 176.236 532.582 175.642L543.249 164.976C544.68 163.544 543.937 161.101 541.953 160.709L537.632 159.845C536.633 159.642 535.85 158.859 535.647 157.86Z" fill="#303030"/>
<path d="M364.021 54.4334L375.552 47.9539L376.078 48.9794L392.569 32.1379L392.225 31.4675C391.599 30.2476 392.08 28.7505 393.299 28.1252L393.686 27.927C394.905 27.3017 396.401 27.7841 397.027 29.004L415.685 65.373C416.311 66.5928 415.83 68.0899 414.611 68.7152L414.225 68.9135C413.006 69.5387 411.509 69.0563 410.883 67.8365L410.54 67.1661L387.241 70.7381L387.767 71.7636L383.983 73.527L395.417 89.7017L390.933 92.0026L379.386 75.6695L375.778 77.3505L364.02 54.4314L364.021 54.4334Z" fill="#037EE6"/>
<path d="M387.764 68.197C387.969 68.0923 388.126 67.9113 388.199 67.6932C388.278 67.4651 388.261 67.2131 388.15 66.9969L375.935 43.1873C375.824 42.9711 375.631 42.8095 375.398 42.7411C375.167 42.6716 374.918 42.6971 374.704 42.8168L363.173 49.2963C362.755 49.5307 362.598 50.0547 362.817 50.4811L374.575 73.4002C374.794 73.8266 375.311 74.0048 375.745 73.8021L387.734 68.2152C387.744 68.2102 387.754 68.2051 387.763 68.2L387.764 68.197ZM374.772 44.8238L386.141 66.9852L375.768 71.8182L364.795 50.4284L374.771 44.8218L374.772 44.8238Z" fill="#FCEC6D"/>
<path d="M410.779 63.4754C410.944 63.391 411.08 63.256 411.166 63.0887C411.296 62.8342 411.296 62.5312 411.165 62.2753L393.194 27.2471C393.063 26.9912 392.818 26.8163 392.536 26.7732C392.253 26.7302 391.966 26.8248 391.766 27.0302L375.131 44.0156C374.863 44.2885 374.799 44.7048 374.974 45.046L386.078 66.6916C386.253 67.0328 386.627 67.2244 387.007 67.1648L410.507 63.5598C410.602 63.5459 410.695 63.5161 410.778 63.4734L410.779 63.4754ZM392.174 29.1613L409.015 61.9878L387.371 65.307L376.853 44.8058L392.174 29.1613V29.1613Z" fill="#FCEC6D"/>
<path d="M393.13 23.6422L393.514 23.445C394.734 22.8195 396.23 23.3016 396.856 24.522L415.513 60.889C416.139 62.1093 415.658 63.6057 414.439 64.2312L414.054 64.4284C412.835 65.054 411.339 64.5718 410.713 63.3515L392.056 26.9844C391.43 25.7641 391.911 24.2677 393.13 23.6422Z" fill="#FCEC6D"/>
<path d="M414.461 65.2218L414.848 65.0236C416.503 64.1746 417.157 62.1375 416.309 60.4833L397.65 24.1142C396.801 22.458 394.764 21.8016 393.109 22.6506L392.723 22.8488C391.068 23.6978 390.413 25.7349 391.263 27.3911L409.921 63.7601C410.771 65.4163 412.806 66.0708 414.461 65.2218ZM393.923 24.2373C394.702 23.8378 395.664 24.1461 396.065 24.9276L414.723 61.2966C415.123 62.0761 414.814 63.0362 414.034 63.4368L413.647 63.635C412.868 64.0346 411.907 63.7262 411.507 62.9467L392.848 26.5777C392.448 25.7982 392.756 24.8362 393.537 24.4356L393.923 24.2373Z" fill="#037EE6"/>
<path d="M400.473 31.6231C405.75 31.1884 411.014 33.9048 413.583 38.9111C416.151 43.9174 415.285 49.7785 411.856 53.8102L400.473 31.6231V31.6231Z" fill="#FCEC6D"/>
<path d="M412.263 54.6036C412.366 54.5507 412.457 54.4791 412.536 54.3885C416.321 49.9386 417.045 43.7041 414.377 38.5034C411.709 33.3027 406.225 30.2535 400.4 30.7336C400.105 30.7575 399.839 30.9286 399.695 31.1883C399.55 31.4479 399.544 31.7639 399.68 32.0277L411.062 54.2149C411.198 54.4787 411.458 54.6585 411.753 54.6925C411.932 54.7136 412.108 54.6809 412.264 54.6006L412.263 54.6036ZM401.91 32.4719C406.49 32.5855 410.662 35.1703 412.79 39.3178C414.918 43.4652 414.584 48.362 412.005 52.148L401.91 32.4719Z" fill="#037EE6"/>
<path d="M391.177 88.9179L395.662 86.6171C395.892 86.4991 396.059 86.2881 396.12 86.0363C396.181 85.7845 396.131 85.5198 395.982 85.308L384.4 68.9235C384.144 68.5612 383.659 68.4414 383.265 68.6438L378.78 70.9446C378.55 71.0625 378.383 71.2735 378.322 71.5253C378.261 71.7772 378.311 72.0418 378.46 72.2536L390.043 88.6382C390.299 89.0005 390.783 89.1202 391.177 88.9179ZM393.935 85.499L391.051 86.9783L380.509 72.0646L383.392 70.5853L393.935 85.499Z" fill="#FCEC6D"/>
<path d="M420.154 35.6952L429.163 31.0733C429.601 30.8486 429.774 30.3115 429.549 29.8732C429.324 29.4348 428.787 29.2618 428.349 29.4865L419.34 34.1084C418.902 34.3331 418.729 34.8702 418.954 35.3085C419.179 35.7469 419.716 35.9199 420.154 35.6952Z" fill="#037EE6"/>
<path d="M421.703 41.6708L431.818 42.1764L421.703 41.6708Z" fill="#FFFDFD"/>
<path d="M432.223 42.9709C432.496 42.8305 432.691 42.5505 432.707 42.2214C432.731 41.7307 432.352 41.3108 431.862 41.2868L421.747 40.7812C421.256 40.7572 420.837 41.1352 420.813 41.6259C420.79 42.1166 421.168 42.5364 421.658 42.5604L431.773 43.0661C431.935 43.0734 432.09 43.039 432.225 42.9698L432.223 42.9709Z" fill="#037EE6"/>
<path d="M420.182 48.1385L428.692 53.6364L420.182 48.1385Z" fill="#FFFDFD"/>
<path d="M429.099 54.4298C429.234 54.3606 429.354 54.2568 429.441 54.1193C429.707 53.7069 429.589 53.1539 429.175 52.8879L420.664 47.3899C420.251 47.1229 419.699 47.2411 419.433 47.6555C419.167 48.0679 419.285 48.6209 419.699 48.8869L428.21 54.3849C428.487 54.5635 428.828 54.5691 429.101 54.4287L429.099 54.4298Z" fill="#037EE6"/>
<path d="M409.748 16.71L409.25 26.83L409.748 16.71Z" fill="#FFFDFD"/>
<path d="M409.654 27.6224C409.927 27.4821 410.122 27.202 410.138 26.8729L410.636 16.753C410.66 16.2623 410.282 15.8424 409.791 15.8184C409.3 15.7925 408.882 16.1725 408.858 16.6631L408.36 26.7831C408.336 27.2738 408.714 27.6936 409.204 27.7176C409.366 27.725 409.521 27.6905 409.656 27.6214L409.654 27.6224Z" fill="#037EE6"/>
<path d="M420.88 20.8559L415.39 29.3671L420.88 20.8559Z" fill="#FFFDFD"/>
<path d="M415.798 30.1606C415.932 30.0914 416.052 29.9876 416.139 29.8501L421.628 21.3389C421.895 20.9265 421.776 20.3735 421.362 20.1075C420.95 19.8405 420.397 19.9587 420.131 20.373L414.642 28.8842C414.376 29.2966 414.494 29.8497 414.908 30.1157C415.185 30.2943 415.526 30.2999 415.8 30.1596L415.798 30.1606Z" fill="#037EE6"/>
<path d="M72.9769 242.806C70.2777 242.279 66.9702 243.534 65.0428 240.883C64.1642 239.672 63.8873 238.307 63.9396 236.909C64.5762 236.514 65.1475 236.318 65.1475 236.318C65.1475 236.318 65.1475 236.318 65.1475 236.314C65.2826 236.075 69.4819 226.104 64.2165 222.861C58.9489 219.619 56.3173 219.915 54.9851 220.377C48.6862 219.174 41.0356 229.33 42.5596 235.042C42.806 235.968 43.0894 236.754 43.3794 237.434C42.5007 238.242 41.4673 238.88 40.6213 239.729C39.5966 240.757 39.0144 242.064 39.2128 243.556C39.3066 244.268 39.5442 244.919 39.8756 245.52C32.9685 249.364 38.8509 252.43 42.4702 257.474C46.1985 262.666 59.2432 266.963 68.1781 262.773C73.1492 260.443 74.1499 252.986 72.7109 252.023C74.3527 250.886 75.8854 249.492 76.2452 247.402C76.6529 245.028 75.2095 243.242 72.9747 242.806H72.9769ZM40.521 245.178C40.4621 245.208 40.4076 245.237 40.351 245.267C39.8146 244.32 39.5312 243.266 39.7928 242.133C40.1722 240.485 41.6831 239.505 42.9019 238.536C43.1417 238.344 43.3794 238.148 43.6083 237.943C45.4289 241.879 47.1033 241.839 40.521 245.178ZM62.9454 241.175C61.5696 239.381 62.3916 238.085 63.3989 237.285C63.4098 238.03 63.5144 238.773 63.7586 239.507C64.2819 241.088 65.2935 242.194 66.6497 242.765C65.1169 242.534 63.691 242.146 62.9454 241.175ZM72.2421 251.681C71.2675 250.912 70.5001 249.745 71.8824 247.362C73.5918 244.414 72.2334 243.599 70.0684 243.211C72.3032 243.174 74.9632 243.122 75.6652 245.605C76.4261 248.301 74.2676 250.285 72.2421 251.681V251.681Z" fill="black"/>
<path d="M65.1583 248.214C65.1583 248.214 64.7593 259.889 61.1248 260.978C57.4902 262.069 50.1623 249.545 50.1623 249.545C50.1623 249.545 52.6129 249 54.1239 245.982C54.5098 245.208 54.6711 244.248 54.6973 243.248C54.754 241.04 54.1522 238.638 53.86 237.608C53.7706 237.301 53.7118 237.115 53.7052 237.094L54.1173 237.314L61.0572 241.033C61.0572 241.033 60.5056 242.125 60.2941 244.376C60.2178 245.213 60.6037 246.023 61.1226 246.707C62.0013 247.863 65.1562 248.214 65.1562 248.214H65.1583Z" fill="#FFB58C"/>
<path d="M54.6995 243.249C54.7562 241.04 54.1544 238.638 53.8622 237.608C53.9473 237.51 54.0323 237.414 54.1195 237.314L61.0594 241.034C61.0594 241.034 60.5078 242.125 60.2963 244.377C60.22 245.213 60.6059 246.023 61.1248 246.707C59.0753 245.74 56.6574 244.39 54.6995 243.249V243.249Z" fill="#FFB58C"/>
<path d="M65.0996 236.852C65.0996 236.852 65.0996 236.856 65.0996 236.86C65.0516 237.043 64.2929 240.003 63.4949 241.131C62.7274 242.218 63.0893 243.631 61.3865 243.559C61.3822 243.559 61.3778 243.559 61.3713 243.559C58.9184 243.335 54.4052 242.414 54.0542 241.693C53.6007 240.761 52.5236 237.827 52.5236 237.827C52.5236 237.827 50.3302 236.952 50.3106 235.891C50.291 234.831 49.7721 233.367 50.8121 233.034C51.0083 232.971 51.1958 232.99 51.379 233.064C51.8477 233.252 52.2816 233.787 52.6959 234.182C52.6959 234.182 52.6973 234.183 52.7002 234.186C52.8768 234.351 53.0469 234.491 53.217 234.567C53.217 234.567 53.2213 234.567 53.2213 234.571C53.2279 234.571 53.2344 234.578 53.2388 234.578C53.2998 234.606 53.3609 234.624 53.4241 234.63H53.4284C56.9038 235.482 60.6409 229.486 60.6409 229.486C60.7303 229.349 60.8109 229.214 60.8851 229.079C60.8851 229.079 63.9048 230.767 65.0254 229.486C65.1759 230.242 65.2587 231.163 64.96 231.773C64.3779 232.971 65.1018 233.837 65.1628 235.835C65.1693 236.116 65.1475 236.464 65.1039 236.854L65.0996 236.852Z" fill="#FFB58C"/>
<path d="M92.2813 228.692C92.2813 229.284 88.7427 233.231 88.3132 234.661C88.2259 234.82 88.1584 234.984 88.1126 235.147C87.755 236.449 84.8988 249.917 83.8283 250.584C83.2156 250.963 78.613 252.884 74.7735 254.465C71.8846 255.652 69.4296 256.645 69.4296 256.645L67.088 251.224L66.0741 248.872C66.1962 248.77 73.7793 247.452 76.7968 245.958C77.2263 246.117 77.6188 245.895 77.8804 245.187C78.286 244.634 79.0207 242.974 79.8667 240.905C81.8093 237.092 84.3188 232.629 84.4824 232.052C84.6873 231.338 85.1408 227.986 85.2629 227.056C85.2825 226.904 85.2934 226.817 85.2934 226.817C85.7709 225.057 86.1961 222.805 86.4468 221.89C86.8022 220.584 88.8277 217.968 88.9454 218.323C89.0654 218.68 89.1831 218.798 88.9454 219.512C88.7078 220.227 87.8749 222.01 87.755 222.722C87.6373 223.437 87.2797 225.606 87.2797 225.606C87.2797 225.606 88.0995 224.894 88.5901 225.205C89.0784 225.517 89.3052 225.874 89.3052 225.874C89.3052 225.874 90.4193 225.29 90.8663 225.606C91.2849 225.9 91.4288 226.189 91.4441 226.227C91.4441 226.227 91.4448 226.228 91.4462 226.231C91.4462 226.231 92.2835 228.102 92.2835 228.696L92.2813 228.692Z" fill="#FFB58C"/>
<path opacity="0.43" d="M74.7714 254.467C71.8825 255.654 69.4275 256.647 69.4275 256.647L67.0858 251.226C67.583 250.614 68.0299 250.324 68.0299 250.324L74.7714 254.467V254.467Z" fill="#FFB58C"/>
<path d="M36.6511 385.827C35.5631 388.279 34.7324 389.331 35.2033 390.47C35.6721 391.607 41.0182 392.341 43.4536 393.933C45.889 395.525 52.6697 399.208 53.5418 397.988C54.4139 396.773 54.0193 395.714 53.3543 395.344C52.6893 394.974 50.7816 393.358 49.4276 391.021C48.078 388.684 46.8701 386.225 46.0721 384.805C45.381 383.573 45.7603 381.787 45.8737 381.336C45.8912 381.271 45.9021 381.232 45.9021 381.232C49.2161 369.854 56.5833 344.77 57.3748 342.078C57.4184 341.932 57.3857 341.773 57.2919 341.658C56.2541 340.425 50.2016 333.508 47.5482 336.603C47.4959 336.662 47.4632 336.74 47.4501 336.818C47.1405 338.67 43.4143 360.956 41.6592 368.683C40.7914 372.496 39.8539 376.002 39.1911 378.734V378.738C39.1453 378.879 37.7172 383.414 36.6489 385.827H36.6511Z" fill="#FFB58C"/>
<path d="M53.5352 394.484C53.5527 394.51 53.5723 394.534 53.5963 394.556C53.9495 394.883 56.858 397.642 55.9183 399.26C54.9197 400.983 53.7794 401.005 52.1181 400.284C50.4567 399.563 45.3221 396.479 42.1541 394.791C38.9861 393.103 38.7877 392.574 38.1053 392.846C37.4229 393.118 37.6191 394.412 36.8691 394.194C36.1212 393.977 33.4678 393.145 33.5463 392.226C33.6248 391.307 34.5732 388.462 35.4192 386.413C36.2651 384.363 36.7884 382.841 37.3204 382.787C37.8546 382.734 38.5828 385.097 42.0494 387.108C45.5139 389.118 48.4726 390.509 49.4167 390.137C50.3106 389.784 53.2256 394.031 53.5352 394.484V394.484Z" fill="black"/>
<path d="M67.7617 390.801C67.6287 393.702 67.2624 395.089 68.0299 396.054C68.7952 397.015 73.57 395.64 76.1537 396.283C78.7351 396.925 85.6816 397.956 86.0304 396.383C86.3793 394.813 85.7012 393.903 85.0188 393.794C84.3363 393.683 82.1931 392.809 80.2897 390.989C78.3885 389.168 76.5723 387.164 75.4364 386.051C74.4509 385.082 74.1979 383.133 74.1478 382.632C74.1413 382.56 74.1391 382.514 74.1391 382.514C73.2844 369.739 71.453 341.549 71.2567 338.526C71.2458 338.36 71.1673 338.212 71.0496 338.136C69.7698 337.304 62.4004 332.726 61.1445 336.893C61.1205 336.973 61.1162 337.062 61.1314 337.15C61.465 339.136 65.4877 363.066 66.4884 371.547C66.9812 375.733 67.3169 379.638 67.6353 382.652V382.656C67.644 382.817 67.8925 387.95 67.7639 390.803L67.7617 390.801Z" fill="#FFB58C"/>
<path d="M84.8922 392.853C84.9162 392.872 84.9402 392.887 84.9664 392.9C85.3719 393.09 88.7295 394.721 88.4548 396.725C88.1627 398.857 87.2011 399.327 85.5572 399.26C83.9133 399.192 78.5585 398.112 75.3229 397.661C72.0873 397.213 71.7494 396.757 71.2567 397.302C70.7639 397.846 71.3482 399.072 70.6418 399.149C69.9354 399.225 67.415 399.436 67.1839 398.478C66.9549 397.52 66.8437 394.279 66.9004 391.879C66.9571 389.479 66.9113 387.739 67.3452 387.473C67.7813 387.21 69.1636 389.303 72.7545 389.958C76.3455 390.614 79.3085 390.849 79.9887 390.1C80.6341 389.392 84.4801 392.517 84.8879 392.853H84.8922Z" fill="black"/>
<path d="M43.5473 310.656C43.6672 324.727 44.1381 342.124 44.8489 343.398C45.5597 344.672 53.3739 343.051 61.308 343.398C62.6794 343.459 63.8458 343.539 64.8466 343.622C69.6345 344.018 70.5895 344.45 71.6404 342.659C71.7407 342.487 71.8366 342.058 71.9238 341.409C72.4776 337.354 72.7807 324.727 72.8287 313.088C72.833 312.246 72.8352 311.407 72.8352 310.58C72.8461 301.657 72.6978 293.753 72.3948 291.393C71.9107 287.638 62.9585 285.676 56.1559 284.724C51.9218 284.129 48.5227 283.929 48.5227 283.929C48.5227 283.929 47.8468 285.613 46.9921 288.433C45.503 293.346 43.4731 301.716 43.5495 310.656H43.5473Z" fill="#303030"/>
<path opacity="0.66" d="M43.5474 310.655C43.6673 324.727 44.1383 342.123 44.849 343.397C45.5598 344.671 53.374 343.051 61.3081 343.397C62.6795 343.458 63.846 343.539 64.8467 343.622L65.3351 343.397C65.3351 343.397 50.1777 339.414 49.7046 336.167C49.2314 332.92 49.1115 306.019 49.7046 298.287C50.2954 290.556 56.3697 287.124 56.3697 287.124C56.3697 286.231 56.2978 285.434 56.1539 284.726C51.9197 284.131 48.5207 283.931 48.5207 283.931C48.5207 283.931 47.8448 285.614 46.9901 288.435C45.501 293.348 43.4711 301.718 43.5474 310.658V310.655Z" fill="#303030"/>
<path opacity="0.11" d="M62.2651 337.713C62.8494 338.395 67.6984 340.059 71.9238 341.409C72.4776 337.354 72.7807 324.726 72.8286 313.088C68.939 310.736 64.0813 308.362 63.2768 310.579C61.901 314.366 61.2099 336.474 62.2651 337.713V337.713Z" fill="#303030"/>
<path d="M43.0982 252.611C43.0502 252.32 43.0262 252.158 43.0262 252.158C42.9761 252.357 43.0022 252.494 43.0982 252.611Z" fill="white"/>
<path d="M42.54 252.161C42.54 252.161 42.4921 252.729 42.54 253.021C42.673 253.866 43.543 255.406 43.9572 257.753C44.4129 260.312 44.9885 263.351 45.5881 265.949C46.9268 271.755 47.413 279.933 46.8047 283.023C46.1964 286.111 45.9522 290.979 49.3622 291.769C49.626 291.83 49.8942 291.761 50.1645 291.573C51.1566 291.693 52.4647 291.75 54.1893 291.767C59.6008 291.82 68.1171 290.705 71.0888 290.103C71.5031 290.018 71.8105 289.944 71.9871 289.883C72.4537 289.724 72.4101 288.54 72.1441 286.889C71.9762 285.833 71.7146 284.585 71.4398 283.291C70.9427 280.974 70.3955 278.513 70.2385 276.76C70.1993 276.346 70.184 275.969 70.1949 275.647C70.3017 272.513 72.0198 268.571 72.6586 266.077C72.7655 265.666 72.8418 265.293 72.8767 264.973C73.1187 262.697 68.9783 250.823 68.3678 249.486C67.7595 248.147 63.6169 247.173 63.6169 247.173C64.4694 250.702 62.6424 256.665 60.6932 256.665C58.744 256.665 51.1914 249.486 50.5548 248.876C49.9182 248.269 50.0948 248.391 48.6056 248.757C47.1165 249.123 42.6142 250.216 42.5422 252.161H42.54Z" fill="#037EE6"/>
<path d="M42.54 252.16C42.54 252.16 48.5816 252.282 48.0518 256.712C47.522 261.142 36.3981 272.92 35.5086 272.92C34.619 272.92 31.837 272.491 31.837 269.483C31.837 266.475 38.9731 254.861 42.54 252.16V252.16Z" fill="#FFB58C"/>
<path d="M62.9019 264.707L61.8314 272.304L60.0218 285.133L59.4309 289.341C59.2565 290.567 58.1009 291.408 56.88 291.192L42.4159 288.633L41.2429 288.426C40.0829 288.222 39.2937 287.137 39.455 285.972L41.8097 269.002L42.7974 261.889C42.9653 260.691 44.0729 259.855 45.272 260.023L61.04 262.235C62.2369 262.403 63.0742 263.509 62.9041 264.707H62.9019Z" fill="#FCEC6D"/>
<path d="M31.8042 271.097C31.7606 269.679 33.1582 268.662 34.4969 269.135C37.2877 270.119 41.9186 271.844 45.4071 273.586C50.7467 276.254 55.1966 276.143 56.3086 275.697C57.4206 275.253 61.4824 274.196 61.816 274.919C62.1496 275.642 61.816 275.941 61.816 275.941C61.816 275.941 62.7601 276.209 62.5944 276.703L62.4287 277.197C62.4287 277.197 62.7448 277.975 62.614 278.419C62.4832 278.863 61.5936 279.419 61.5936 279.419C61.5936 279.419 61.6503 280.031 61.4258 280.307C61.2034 280.586 59.1321 280.697 58.3057 280.641C57.4772 280.584 55.0309 279.086 54.1392 279.14C53.2496 279.197 38.8422 280.695 34.9504 278.029C32.5237 276.365 31.8718 273.353 31.8021 271.095L31.8042 271.097Z" fill="#FFB58C"/>
<path d="M421.806 256.181C421.521 256.688 423.822 259.357 426.026 260.683C427.892 261.811 432.474 263.944 433.83 264.565L437.573 258.727C436.902 258.165 436.181 257.522 435.634 256.892C434.273 255.354 430.096 251.597 429.554 252.208C429.015 252.809 431.363 255.963 430.926 256.032C430.491 256.102 428.232 254.19 427.338 253.298C426.433 252.409 424.818 250.189 424.087 250.301C423.349 250.413 423.24 251.498 423.24 251.498C423.24 251.498 422.721 250.577 422.204 251.009C421.69 251.438 422.139 253.072 422.139 253.072C422.139 253.072 421.911 252.533 421.461 253.144C421.011 253.768 422.517 255.963 422.517 255.963C422.517 255.963 422.082 255.66 421.806 256.176V256.181Z" fill="#FFB58C"/>
<path d="M480.54 221.555C485.396 221.977 489.61 226.099 489.669 231.989C489.729 237.88 490.798 240.909 494.361 240.224C494.361 240.224 484.382 246.007 471.234 240.904C471.234 240.904 472.882 238.952 473.113 234.527C473.344 230.102 480.54 221.555 480.54 221.555V221.555Z" fill="black"/>
<path d="M455.009 281.724C458.102 283.387 461.996 282.22 463.661 279.129L476.174 255.89C477.839 252.799 476.671 248.908 473.578 247.244C470.484 245.58 466.59 246.747 464.926 249.839L452.412 273.077C450.747 276.169 451.915 280.06 455.009 281.724Z" fill="#FCEC6D"/>
<path d="M483.45 289.457C487.632 294.93 489.207 306.273 486.541 318.493C483.875 330.713 482.973 338.747 482.973 338.747C482.277 344.404 477.126 348.426 471.466 347.731C465.805 347.036 461.78 341.888 462.476 336.231L466.727 289.454H483.45V289.457Z" fill="#303030"/>
<path d="M484.372 244.597L495.551 249.655C495.551 249.655 493.067 278.411 492.808 281.557C492.552 284.704 493.514 289.454 493.514 289.454H466.727C466.727 289.454 467.048 274.046 465.249 269.745C464.031 266.832 463.194 265.059 463.9 261.719C464.605 258.381 469.776 252.479 468.941 246.7L474.773 244.833L484.372 244.592V244.597Z" fill="#037EE6"/>
<path d="M504.519 286.363C507.819 285.156 509.528 281.471 508.321 278.173L499.241 253.393C498.034 250.095 494.346 248.386 491.046 249.593C487.746 250.8 486.037 254.485 487.244 257.783L496.324 282.563C497.532 285.861 501.219 287.57 504.519 286.363Z" fill="#FCEC6D"/>
<path d="M473.426 227.932C473.426 227.932 471.906 224.192 475.561 223.06L473.426 227.932Z" fill="black"/>
<path d="M474.776 231.84V244.835C474.776 244.835 475.037 247.686 478.423 247.937C481.346 248.158 483.212 246.233 483.997 245.208L484.409 244.604L484.419 244.594L483.038 231.84H474.773H474.776Z" fill="#FFB58C"/>
<path d="M474.778 243.355L480.541 237.092L474.773 239.258L474.778 243.355Z" fill="#FFB58C"/>
<path d="M480.493 238.481C477.8 240.067 474.622 240.065 472.703 238.776C470.785 237.495 471.101 234.542 471.672 232.667C471.672 232.667 471.674 232.662 471.677 232.652C471.796 232.265 471.965 231.719 472.154 231.103C472.887 228.682 473.971 225.093 473.971 225.093C474.445 223.199 479.877 218.935 485.021 224.495C490.162 230.062 483.189 236.894 480.496 238.481H480.493Z" fill="#FFB58C"/>
<path d="M474.142 224.329C474.142 224.329 474.212 226.601 477.397 228.118C480.58 229.635 483.604 231.957 483.222 235.312C482.841 238.667 483.992 240.559 483.992 240.559C483.992 240.559 484.466 236.38 486.576 232.839C487.394 231.466 488.112 228.568 486.752 226.072C484.608 222.131 479.072 219.136 474.144 224.331L474.142 224.329Z" fill="black"/>
<path d="M482.675 234.589C481.989 235.6 481.795 236.32 482.59 236.856C483.385 237.393 484.732 237.266 485.418 236.256C486.104 235.245 486.014 233.988 485.219 233.452C484.424 232.916 483.361 233.579 482.675 234.589V234.589Z" fill="#FFB58C"/>
<path d="M458.771 391.97H476.915L483.145 338.672L483.224 337.453C483.224 331.659 478.446 326.988 472.609 327.162C467.346 327.313 462.935 331.595 462.625 336.854L458.773 391.97H458.771Z" fill="#303030"/>
<path d="M491.903 391.97H509.218L503.724 336.919L503.709 336.728C503.341 331.379 498.876 327.155 493.429 327.155C487.982 327.155 483.125 331.761 483.125 337.453C483.125 337.771 483.139 338.084 483.172 338.387L491.906 391.97H491.903Z" fill="#303030"/>
<path d="M432.073 267.311L453.262 280.711L454.514 281.751C457.068 283.522 460.813 282.601 462.826 279.7C464.836 276.8 464.381 272.978 461.827 271.21L438.094 257.917L437.57 258.729L433.828 264.567L432.073 267.314V267.311Z" fill="#037EE6"/>
<path d="M475.128 289.462L475.369 290.962L483.142 338.416C483.736 344.088 488.817 348.198 494.493 347.604C500.158 347.011 504.28 341.933 503.684 336.261C503.684 336.261 502.747 328.233 502.596 315.722C502.474 306.032 500.277 298.215 496.821 293.157C495.812 291.687 494.704 290.448 493.514 289.459H475.128V289.462Z" fill="#303030"/>
<path d="M512.704 403.661H499.338L497.604 401.024L497.644 403.661H494.699L494.963 396.038L494.319 391.968H505.205L505.245 396.038L512.704 403.661Z" fill="#FFB58C"/>
<path d="M474.363 244.783L475.036 258.446L483.997 245.21C483.211 246.238 481.345 248.163 478.423 247.939C475.036 247.688 474.363 244.783 474.363 244.783Z" fill="#B4D8F1"/>
<path d="M484.34 243.857L477.658 247.83L479.069 250.301L485.281 245.009L484.34 243.857Z" fill="#037EE6"/>
<path d="M474.778 244.425L477.658 247.83L475.919 249.926L474.105 245.051L474.778 244.425Z" fill="#037EE6"/>
<path d="M438.857 286.551L474.84 288.059L466.58 260.738L430.598 259.228L438.857 286.551Z" fill="#037EE6"/>
<path d="M474.502 286.735L486.705 276.827L451.902 275.369L438.519 285.228L474.502 286.735Z" fill="#B4D8F1"/>
<path d="M439.563 285.983L475.546 287.492L467.283 260.169L431.301 258.662L439.563 285.983Z" fill="#B4D8F1"/>
<path d="M431.301 258.662L430.598 259.228L466.581 260.738L474.84 288.059L475.546 287.493L467.284 260.169L431.301 258.662Z" fill="#037EE6"/>
<path d="M486.705 276.827L487.043 278.151L474.84 288.059L474.44 286.733L486.705 276.827Z" fill="#B4D8F1"/>
<path d="M447.199 273.72C447.159 274.694 448.911 275.56 451.115 275.652C453.319 275.744 455.138 275.029 455.178 274.056C455.217 273.082 453.465 272.215 451.261 272.124C449.057 272.032 447.238 272.747 447.199 273.72Z" fill="#037EE6"/>
<path d="M464.625 403.661L467.821 401.285L467.547 403.661H470.522L471.983 396.038L472.771 391.968H461.238L460.796 396.038L451.543 403.661H464.625Z" fill="#FFB58C"/>
<path d="M505.244 396.037L512.704 403.661H499.338L497.603 401.024L497.643 403.661H494.699L494.962 396.037H505.244Z" fill="black"/>
<path d="M464.625 403.661L467.821 401.284L467.547 403.661H470.522L471.983 396.037H460.796L451.543 403.661H464.625Z" fill="black"/>
<path d="M459.983 280.047C459.462 280.579 460.023 281.513 460.023 281.513C460.023 281.513 459.052 281.085 458.905 281.736C458.761 282.339 459.909 283.293 460.058 283.417C459.949 283.365 459.578 283.233 459.591 283.894C459.598 284.622 461.884 285.431 462.1 285.506C462.018 285.518 461.599 285.583 461.673 286.107C461.763 286.69 465.197 287.452 467.753 287.202C469.91 286.986 474.835 285.945 476.309 285.63L475.919 278.729C475.017 278.687 474.008 278.592 473.18 278.411C471.163 277.991 465.569 277.49 465.5 278.302C465.428 279.104 469.197 280.229 468.891 280.542C468.583 280.854 465.631 280.678 464.384 280.507C463.122 280.331 460.495 279.518 459.983 280.047V280.047Z" fill="#FFB58C"/>
<path d="M475.799 276.646L475.921 278.732L476.311 285.633L476.415 287.465L503.194 287.021C506.303 286.914 508.748 283.941 508.631 280.415C508.502 276.884 505.853 274.095 502.737 274.207L500.72 274.55L500.71 274.555L475.802 276.646H475.799Z" fill="#FCEC6D"/>
<defs>
<radialGradient id="paint0_radial_1_4" cx="0" cy="0" r="1" gradientUnits="userSpaceOnUse" gradientTransform="translate(296.091 163.289) scale(79.0819 79.0819)">
<stop stop-color="#6779FF"/>
<stop offset="0.04" stop-color="#5BA4FC"/>
<stop offset="1" stop-color="#43B0FF"/>
</radialGradient>
<radialGradient id="paint1_radial_1_4" cx="0" cy="0" r="1" gradientUnits="userSpaceOnUse" gradientTransform="translate(296.131 163.18) rotate(-118.65) scale(52.2667)">
<stop stop-color="#5AA7FC"/>
<stop offset="1"/>
</radialGradient>
</defs>
</svg>
