<?xml version="1.0" encoding="UTF-8"?>
<svg xmlns="http://www.w3.org/2000/svg" xmlns:xlink="http://www.w3.org/1999/xlink" width="1001px" height="703px" viewBox="0 0 1001 703" version="1.1">
<defs>
<filter id="alpha" filterUnits="objectBoundingBox" x="0%" y="0%" width="100%" height="100%">
  <feColorMatrix type="matrix" in="SourceGraphic" values="0 0 0 0 1 0 0 0 0 1 0 0 0 0 1 0 0 0 1 0"/>
</filter>
<mask id="mask0">
  <g filter="url(#alpha)">
<rect x="0" y="0" width="1001" height="703" style="fill:rgb(0%,0%,0%);fill-opacity:0.301961;stroke:none;"/>
  </g>
</mask>
<clipPath id="clip1">
  <rect x="0" y="0" width="1002" height="703"/>
</clipPath>
<g id="surface5" clip-path="url(#clip1)">
<path style=" stroke:none;fill-rule:nonzero;fill:rgb(70.588237%,84.705883%,94.509804%);fill-opacity:1;" d="M 495.480469 682.015625 C 730.296875 682.015625 920.652344 658.113281 920.652344 628.625 C 920.652344 599.136719 730.296875 575.230469 495.480469 575.230469 C 260.664062 575.230469 70.308594 599.136719 70.308594 628.625 C 70.308594 658.113281 260.664062 682.015625 495.480469 682.015625 Z M 495.480469 682.015625 "/>
</g>
<mask id="mask1">
  <g filter="url(#alpha)">
<rect x="0" y="0" width="1001" height="703" style="fill:rgb(0%,0%,0%);fill-opacity:0.14902;stroke:none;"/>
  </g>
</mask>
<radialGradient id="radial0" gradientUnits="userSpaceOnUse" cx="0" cy="0" fx="0" fy="0" r="1" gradientTransform="matrix(136.249541,0,0,136.261218,510.132693,281.353353)">
<stop offset="0" style="stop-color:rgb(40.392157%,47.45098%,100%);stop-opacity:1;"/>
<stop offset="0.04" style="stop-color:rgb(35.686275%,64.313725%,98.823529%);stop-opacity:1;"/>
<stop offset="1" style="stop-color:rgb(26.27451%,69.019608%,100%);stop-opacity:1;"/>
</radialGradient>
<clipPath id="clip2">
  <rect x="0" y="0" width="1002" height="703"/>
</clipPath>
<g id="surface8" clip-path="url(#clip2)">
<path style=" stroke:none;fill-rule:nonzero;fill:url(#radial0);" d="M 580.609375 397.953125 C 644.996094 359.035156 665.644531 275.28125 626.722656 210.886719 C 587.808594 146.496094 504.0625 125.84375 439.671875 164.765625 C 375.285156 203.6875 354.636719 287.441406 393.554688 351.835938 C 432.472656 416.226562 516.21875 436.875 580.609375 397.953125 Z M 580.609375 397.953125 "/>
</g>
<mask id="mask2">
  <g filter="url(#alpha)">
<rect x="0" y="0" width="1001" height="703" style="fill:rgb(0%,0%,0%);fill-opacity:0.501961;stroke:none;"/>
  </g>
</mask>
<radialGradient id="radial1" gradientUnits="userSpaceOnUse" cx="0" cy="0" fx="0" fy="0" r="1" gradientTransform="matrix(-43.175114,-79.031366,79.024594,-43.178814,510.201623,281.165527)">
<stop offset="0" style="stop-color:rgb(35.294118%,65.490196%,98.823529%);stop-opacity:1;"/>
<stop offset="1" style="stop-color:rgb(0%,0%,0%);stop-opacity:1;"/>
</radialGradient>
<clipPath id="clip3">
  <rect x="0" y="0" width="1002" height="703"/>
</clipPath>
<g id="surface11" clip-path="url(#clip3)">
<path style=" stroke:none;fill-rule:nonzero;fill:url(#radial1);" d="M 510.136719 371.410156 C 559.867188 371.410156 600.183594 331.089844 600.183594 281.351562 C 600.183594 231.613281 559.867188 191.292969 510.136719 191.292969 C 460.402344 191.292969 420.085938 231.613281 420.085938 281.351562 C 420.085938 331.089844 460.402344 371.410156 510.136719 371.410156 Z M 510.136719 371.410156 "/>
</g>
<mask id="mask3">
  <g filter="url(#alpha)">
<rect x="0" y="0" width="1001" height="703" style="fill:rgb(0%,0%,0%);fill-opacity:0.8;stroke:none;"/>
  </g>
</mask>
<clipPath id="clip4">
  <rect x="0" y="0" width="1002" height="703"/>
</clipPath>
<g id="surface14" clip-path="url(#clip4)">
<path style=" stroke:none;fill-rule:nonzero;fill:rgb(70.588237%,84.705883%,94.509804%);fill-opacity:1;" d="M 313.820312 150.117188 L 66.585938 150.117188 C 65.042969 150.117188 63.792969 151.363281 63.792969 152.90625 L 63.792969 284.003906 C 63.792969 285.546875 65.042969 286.792969 66.585938 286.792969 L 313.820312 286.792969 C 315.363281 286.792969 316.613281 285.546875 316.613281 284.003906 L 316.613281 152.90625 C 316.613281 151.363281 315.363281 150.117188 313.820312 150.117188 Z M 313.820312 150.117188 "/>
<path style=" stroke:none;fill-rule:nonzero;fill:rgb(100%,100%,100%);fill-opacity:1;" d="M 296.164062 163.773438 L 263.363281 163.773438 C 261.707031 163.773438 260.363281 165.117188 260.363281 166.773438 L 260.363281 168.355469 C 260.363281 170.011719 261.707031 171.355469 263.363281 171.355469 L 296.164062 171.355469 C 297.824219 171.355469 299.167969 170.011719 299.167969 168.355469 L 299.167969 166.773438 C 299.167969 165.117188 297.824219 163.773438 296.164062 163.773438 Z M 296.164062 163.773438 "/>
<path style=" stroke:none;fill-rule:nonzero;fill:rgb(1.176471%,49.411765%,90.196079%);fill-opacity:1;" d="M 100.339844 217.28125 C 100.339844 223.050781 102.734375 228.285156 106.597656 231.984375 L 93.011719 245.570312 C 85.683594 238.378906 81.148438 228.378906 81.148438 217.28125 C 81.148438 195.390625 98.898438 177.636719 120.789062 177.636719 L 120.789062 196.832031 C 109.503906 196.832031 100.339844 205.996094 100.339844 217.28125 Z M 100.339844 217.28125 "/>
<path style=" stroke:none;fill-rule:nonzero;fill:rgb(98.823529%,92.54902%,42.745098%);fill-opacity:1;" d="M 160.425781 217.28125 L 141.234375 217.28125 C 141.234375 205.996094 132.070312 196.832031 120.789062 196.832031 L 120.789062 177.636719 C 142.679688 177.636719 160.425781 195.390625 160.425781 217.28125 Z M 160.425781 217.28125 "/>
<path style=" stroke:none;fill-rule:nonzero;fill:rgb(100%,100%,100%);fill-opacity:1;" d="M 160.425781 217.28125 C 160.425781 239.171875 142.679688 256.925781 120.789062 256.925781 C 109.972656 256.925781 100.152344 252.597656 93.011719 245.546875 L 106.597656 231.960938 C 110.273438 235.519531 115.273438 237.707031 120.8125 237.707031 C 132.09375 237.707031 141.257812 228.539062 141.257812 217.257812 L 160.449219 217.257812 Z M 160.425781 217.28125 "/>
<path style=" stroke:none;fill-rule:nonzero;fill:rgb(100%,100%,100%);fill-opacity:1;" d="M 298.097656 189.082031 L 177.246094 189.082031 C 176.65625 189.082031 176.175781 189.5625 176.175781 190.15625 L 176.175781 193.132812 C 176.175781 193.722656 176.65625 194.203125 177.246094 194.203125 L 298.097656 194.203125 C 298.6875 194.203125 299.167969 193.722656 299.167969 193.132812 L 299.167969 190.15625 C 299.167969 189.5625 298.6875 189.082031 298.097656 189.082031 Z M 298.097656 189.082031 "/>
<path style=" stroke:none;fill-rule:nonzero;fill:rgb(100%,100%,100%);fill-opacity:1;" d="M 177.246094 211.300781 L 298.097656 211.300781 C 298.6875 211.300781 299.167969 210.824219 299.167969 210.230469 L 299.167969 207.253906 C 299.167969 206.664062 298.6875 206.183594 298.097656 206.183594 L 177.246094 206.183594 C 176.65625 206.183594 176.175781 206.664062 176.175781 207.253906 L 176.175781 210.230469 C 176.175781 210.824219 176.65625 211.300781 177.246094 211.300781 Z M 177.246094 211.300781 "/>
<path style=" stroke:none;fill-rule:nonzero;fill:rgb(100%,100%,100%);fill-opacity:1;" d="M 177.246094 228.378906 L 298.097656 228.378906 C 298.6875 228.378906 299.167969 227.898438 299.167969 227.308594 L 299.167969 224.328125 C 299.167969 223.738281 298.6875 223.257812 298.097656 223.257812 L 177.246094 223.257812 C 176.65625 223.257812 176.175781 223.738281 176.175781 224.328125 L 176.175781 227.308594 C 176.175781 227.898438 176.65625 228.378906 177.246094 228.378906 Z M 177.246094 228.378906 "/>
<path style=" stroke:none;fill-rule:nonzero;fill:rgb(100%,100%,100%);fill-opacity:1;" d="M 177.246094 245.476562 L 298.097656 245.476562 C 298.6875 245.476562 299.167969 245 299.167969 244.40625 L 299.167969 241.429688 C 299.167969 240.835938 298.6875 240.359375 298.097656 240.359375 L 177.246094 240.359375 C 176.65625 240.359375 176.175781 240.835938 176.175781 241.429688 L 176.175781 244.40625 C 176.175781 245 176.65625 245.476562 177.246094 245.476562 Z M 177.246094 245.476562 "/>
</g>
<mask id="mask4">
  <g filter="url(#alpha)">
<rect x="0" y="0" width="1001" height="703" style="fill:rgb(0%,0%,0%);fill-opacity:0.431373;stroke:none;"/>
  </g>
</mask>
<clipPath id="clip5">
  <rect x="0" y="0" width="1002" height="703"/>
</clipPath>
<g id="surface17" clip-path="url(#clip5)">
<path style=" stroke:none;fill-rule:nonzero;fill:rgb(100%,70.980394%,54.901963%);fill-opacity:1;" d="M 128.824219 438.457031 C 123.847656 440.5 119.617188 442.210938 119.617188 442.210938 L 115.582031 432.871094 C 116.4375 431.816406 117.207031 431.316406 117.207031 431.316406 Z M 128.824219 438.457031 "/>
</g>
<mask id="mask5">
  <g filter="url(#alpha)">
<rect x="0" y="0" width="1001" height="703" style="fill:rgb(0%,0%,0%);fill-opacity:0.658824;stroke:none;"/>
  </g>
</mask>
<clipPath id="clip6">
  <rect x="0" y="0" width="1002" height="703"/>
</clipPath>
<g id="surface20" clip-path="url(#clip6)">
<path style=" stroke:none;fill-rule:nonzero;fill:rgb(18.82353%,18.82353%,18.82353%);fill-opacity:1;" d="M 75.027344 535.269531 C 75.234375 559.515625 76.046875 589.492188 77.269531 591.6875 C 78.496094 593.882812 91.957031 591.089844 105.628906 591.6875 C 107.988281 591.792969 110 591.929688 111.722656 592.074219 L 112.566406 591.6875 C 112.566406 591.6875 86.449219 584.824219 85.636719 579.230469 C 84.820312 573.632812 84.613281 527.28125 85.636719 513.960938 C 86.652344 500.640625 97.117188 494.726562 97.117188 494.726562 C 97.117188 493.1875 96.996094 491.8125 96.746094 490.59375 C 89.453125 489.570312 83.597656 489.222656 83.597656 489.222656 C 83.597656 489.222656 82.429688 492.125 80.957031 496.984375 C 78.394531 505.449219 74.894531 519.871094 75.027344 535.277344 Z M 75.027344 535.269531 "/>
</g>
<mask id="mask6">
  <g filter="url(#alpha)">
<rect x="0" y="0" width="1001" height="703" style="fill:rgb(0%,0%,0%);fill-opacity:0.109804;stroke:none;"/>
  </g>
</mask>
<clipPath id="clip7">
  <rect x="0" y="0" width="1002" height="703"/>
</clipPath>
<g id="surface23" clip-path="url(#clip7)">
<path style=" stroke:none;fill-rule:nonzero;fill:rgb(18.82353%,18.82353%,18.82353%);fill-opacity:1;" d="M 107.277344 581.894531 C 108.28125 583.066406 116.636719 585.933594 123.917969 588.261719 C 124.871094 581.273438 125.394531 559.515625 125.476562 539.464844 C 118.773438 535.410156 110.40625 531.320312 109.019531 535.140625 C 106.648438 541.664062 105.457031 579.757812 107.277344 581.894531 Z M 107.277344 581.894531 "/>
</g>
</defs>
<g id="surface1">
<use xlink:href="#surface5" mask="url(#mask0)"/>
<path style=" stroke:none;fill-rule:nonzero;fill:rgb(1.176471%,49.411765%,90.196079%);fill-opacity:1;" d="M 268.808594 61.964844 L 256.058594 61.964844 L 256.058594 101.46875 L 268.808594 101.46875 Z M 268.808594 61.964844 "/>
<path style=" stroke:none;fill-rule:nonzero;fill:rgb(98.823529%,92.54902%,42.745098%);fill-opacity:1;" d="M 287.023438 43.820312 L 274.277344 43.820312 L 274.277344 101.46875 L 287.023438 101.46875 Z M 287.023438 43.820312 "/>
<path style=" stroke:none;fill-rule:nonzero;fill:rgb(1.176471%,49.411765%,90.196079%);fill-opacity:1;" d="M 322.335938 36.09375 L 309.589844 36.09375 L 309.589844 101.46875 L 322.335938 101.46875 Z M 322.335938 36.09375 "/>
<path style=" stroke:none;fill-rule:nonzero;fill:rgb(98.823529%,92.54902%,42.745098%);fill-opacity:1;" d="M 340.550781 29.207031 L 327.800781 29.207031 L 327.800781 101.46875 L 340.550781 101.46875 Z M 340.550781 29.207031 "/>
<path style=" stroke:none;fill-rule:nonzero;fill:rgb(1.176471%,49.411765%,90.196079%);fill-opacity:1;" d="M 375.839844 58.730469 L 363.09375 58.730469 L 363.09375 101.46875 L 375.839844 101.46875 Z M 375.839844 58.730469 "/>
<path style=" stroke:none;fill-rule:nonzero;fill:rgb(98.823529%,92.54902%,42.745098%);fill-opacity:1;" d="M 394.054688 18.996094 L 381.308594 18.996094 L 381.308594 101.46875 L 394.054688 101.46875 Z M 394.054688 18.996094 "/>
<path style=" stroke:none;fill-rule:nonzero;fill:rgb(1.176471%,49.411765%,90.196079%);fill-opacity:1;" d="M 429.367188 6.480469 L 416.621094 6.480469 L 416.621094 101.46875 L 429.367188 101.46875 Z M 429.367188 6.480469 "/>
<path style=" stroke:none;fill-rule:nonzero;fill:rgb(98.823529%,92.54902%,42.745098%);fill-opacity:1;" d="M 447.582031 29.324219 L 434.832031 29.324219 L 434.832031 101.46875 L 447.582031 101.46875 Z M 447.582031 29.324219 "/>
<path style=" stroke:none;fill-rule:nonzero;fill:rgb(100%,100%,100%);fill-opacity:1;" d="M 480.683594 418.402344 C 461.191406 418.402344 445.347656 433.523438 445.347656 452.089844 C 445.347656 470.65625 461.191406 485.777344 480.683594 485.777344 C 500.179688 485.777344 516.023438 470.65625 516.023438 452.089844 C 516.023438 433.523438 500.179688 418.402344 480.683594 418.402344 Z M 448.722656 453.671875 L 462.003906 453.671875 C 462.238281 459 463.609375 463.816406 465.496094 468.027344 L 453.375 468.027344 C 450.652344 463.816406 449 458.929688 448.722656 453.671875 Z M 482.335938 432.945312 L 482.335938 423.382812 C 484.40625 425.429688 487.386719 428.710938 490.011719 432.945312 Z M 491.828125 436.085938 C 493.992188 440.25 495.617188 445.136719 495.898438 450.53125 L 482.359375 450.53125 L 482.359375 436.085938 L 491.851562 436.085938 Z M 479.058594 423.195312 L 479.058594 432.945312 L 471.171875 432.945312 C 473.914062 428.570312 476.984375 425.21875 479.058594 423.195312 Z M 479.058594 436.085938 L 479.058594 450.53125 L 465.308594 450.53125 C 465.585938 445.136719 467.214844 440.273438 469.378906 436.085938 Z M 462.003906 450.53125 L 448.746094 450.53125 C 449.023438 445.25 450.722656 440.339844 453.464844 436.085938 L 465.679688 436.085938 C 463.679688 440.296875 462.261719 445.15625 462.027344 450.53125 Z M 465.308594 453.671875 L 479.058594 453.671875 L 479.058594 468.027344 L 469.167969 468.027344 C 467.121094 463.886719 465.566406 459.023438 465.308594 453.671875 Z M 479.058594 471.167969 L 479.058594 481.566406 C 477.101562 479.660156 473.796875 476.054688 470.890625 471.167969 Z M 482.335938 481.359375 L 482.335938 471.167969 L 490.316406 471.167969 C 487.5 475.890625 484.3125 479.402344 482.335938 481.359375 Z M 482.335938 468.027344 L 482.335938 453.671875 L 495.875 453.671875 C 495.597656 459.023438 494.0625 463.863281 492.015625 468.027344 Z M 499.179688 453.671875 L 512.648438 453.671875 C 512.367188 458.90625 510.714844 463.792969 507.996094 468.027344 L 495.691406 468.027344 C 497.574219 463.839844 498.945312 459 499.179688 453.671875 Z M 499.179688 450.53125 C 498.945312 445.183594 497.503906 440.296875 495.503906 436.085938 L 507.925781 436.085938 C 510.671875 440.320312 512.367188 445.25 512.648438 450.53125 Z M 505.621094 432.945312 L 493.898438 432.945312 C 491.152344 428.128906 487.898438 424.382812 485.429688 421.917969 C 493.550781 423.082031 500.691406 427.128906 505.621094 432.945312 Z M 475.707031 421.941406 C 473.265625 424.40625 470.007812 428.152344 467.285156 432.945312 L 455.746094 432.945312 C 460.632812 427.175781 467.679688 423.148438 475.707031 421.941406 Z M 455.675781 471.144531 L 467.054688 471.144531 C 469.679688 475.960938 472.773438 479.683594 475.125 482.148438 C 467.308594 480.824219 460.46875 476.820312 455.703125 471.144531 Z M 486.035156 482.195312 C 488.382812 479.730469 491.5 475.984375 494.128906 471.144531 L 505.714844 471.144531 C 500.898438 476.890625 493.96875 480.914062 486.035156 482.195312 Z M 486.035156 482.195312 "/>
<path style=" stroke:none;fill-rule:nonzero;fill:rgb(100%,100%,100%);fill-opacity:1;" d="M 532.1875 454.203125 L 527.714844 437.839844 L 529.726562 437.839844 L 533.144531 451.167969 L 533.304688 451.167969 L 536.789062 437.839844 L 539.027344 437.839844 L 542.507812 451.167969 L 542.667969 451.167969 L 546.089844 437.839844 L 548.101562 437.839844 L 543.628906 454.203125 L 541.582031 454.203125 L 537.972656 441.164062 L 537.84375 441.164062 L 534.234375 454.203125 Z M 553.542969 454.203125 L 549.066406 437.839844 L 551.082031 437.839844 L 554.503906 451.167969 L 554.660156 451.167969 L 558.144531 437.839844 L 560.382812 437.839844 L 563.863281 451.167969 L 564.023438 451.167969 L 567.445312 437.839844 L 569.457031 437.839844 L 564.984375 454.203125 L 562.9375 454.203125 L 559.328125 441.164062 L 559.199219 441.164062 L 555.585938 454.203125 Z M 574.898438 454.203125 L 570.425781 437.839844 L 572.4375 437.839844 L 575.859375 451.167969 L 576.019531 451.167969 L 579.5 437.839844 L 581.738281 437.839844 L 585.222656 451.167969 L 585.378906 451.167969 L 588.800781 437.839844 L 590.8125 437.839844 L 586.339844 454.203125 L 584.292969 454.203125 L 580.683594 441.164062 L 580.554688 441.164062 L 576.945312 454.203125 Z M 574.898438 454.203125 "/>
<path style=" stroke:none;fill-rule:nonzero;fill:rgb(98.823529%,92.54902%,42.745098%);fill-opacity:1;" d="M 853.46875 611.011719 L 166.171875 611.011719 L 195.53125 588.609375 L 824.089844 588.609375 Z M 853.46875 611.011719 "/>
<path style=" stroke:none;fill-rule:nonzero;fill:rgb(1.176471%,49.411765%,90.196079%);fill-opacity:1;" d="M 831.394531 583.09375 C 831.394531 588.027344 826.902344 592.027344 821.390625 592.027344 L 198.253906 592.027344 C 192.738281 592.027344 188.25 588.027344 188.25 583.09375 L 188.25 206.113281 C 188.25 201.183594 192.738281 197.179688 198.253906 197.179688 L 821.390625 197.179688 C 826.902344 197.179688 831.394531 201.183594 831.394531 206.113281 Z M 831.394531 583.09375 "/>
<path style=" stroke:none;fill-rule:nonzero;fill:rgb(70.588237%,84.705883%,94.509804%);fill-opacity:1;" d="M 812.179688 570.648438 L 207.464844 570.648438 L 207.464844 218.535156 L 812.179688 218.535156 Z M 812.179688 570.648438 "/>
<path style=" stroke:none;fill-rule:nonzero;fill:rgb(1.176471%,49.411765%,90.196079%);fill-opacity:1;" d="M 827.695312 643.441406 L 191.925781 643.441406 C 176.152344 643.441406 163.359375 630.648438 163.359375 614.875 C 163.359375 612.082031 165.636719 609.800781 168.429688 609.800781 L 851.1875 609.800781 C 853.980469 609.800781 856.261719 612.082031 856.261719 614.875 C 856.261719 630.648438 843.464844 643.441406 827.695312 643.441406 Z M 827.695312 643.441406 "/>
<path style=" stroke:none;fill-rule:nonzero;fill:rgb(100%,100%,100%);fill-opacity:1;" d="M 556.011719 609.664062 C 556.011719 619.410156 548.125 627.320312 538.375 627.320312 L 481.242188 627.320312 C 471.496094 627.320312 463.585938 619.410156 463.585938 609.664062 "/>
<path style=" stroke:none;fill-rule:nonzero;fill:rgb(100%,100%,100%);fill-opacity:1;" d="M 756.8125 254.339844 L 262.804688 254.339844 C 250.292969 254.339844 240.148438 264.488281 240.148438 277 L 240.148438 288.890625 C 240.148438 301.40625 250.292969 311.550781 262.804688 311.550781 L 756.8125 311.550781 C 769.328125 311.550781 779.46875 301.40625 779.46875 288.890625 L 779.46875 277 C 779.46875 264.488281 769.328125 254.339844 756.8125 254.339844 Z M 756.8125 254.339844 "/>
<path style="fill:none;stroke-width:2.1764;stroke-linecap:round;stroke-linejoin:miter;stroke:rgb(100%,100%,100%);stroke-opacity:1;stroke-miterlimit:10;" d="M 432.031687 166.704436 C 429.399394 169.336504 425.132403 169.336504 422.500109 166.704436 C 419.867816 164.070101 419.867816 159.803476 422.500109 157.171408 C 425.132403 154.537073 429.399394 154.537073 432.031687 157.171408 C 434.663981 159.803476 434.663981 164.070101 432.031687 166.704436 Z M 432.031687 166.704436 " transform="matrix(1.722892,0,0,1.723039,0,0)"/>
<path style="fill:none;stroke-width:2.1764;stroke-linecap:round;stroke-linejoin:miter;stroke:rgb(100%,100%,100%);stroke-opacity:1;stroke-miterlimit:10;" d="M 422.500109 166.704436 L 416.788871 172.428787 " transform="matrix(1.722892,0,0,1.723039,0,0)"/>
<path style=" stroke:none;fill-rule:nonzero;fill:rgb(1.176471%,49.411765%,90.196079%);fill-opacity:1;" d="M 764.140625 337.488281 L 552.589844 337.488281 C 547.722656 337.488281 543.773438 341.4375 543.773438 346.308594 L 543.773438 522.304688 C 543.773438 527.175781 547.722656 531.121094 552.589844 531.121094 L 764.140625 531.121094 C 769.011719 531.121094 772.957031 527.175781 772.957031 522.304688 L 772.957031 346.308594 C 772.957031 341.4375 769.011719 337.488281 764.140625 337.488281 Z M 764.140625 337.488281 "/>
<path style=" stroke:none;fill-rule:nonzero;fill:rgb(100%,100%,100%);fill-opacity:1;" d="M 716.59375 431.316406 C 718.894531 432.640625 718.894531 435.96875 716.59375 437.316406 L 623.492188 491.058594 C 621.191406 492.386719 618.308594 490.734375 618.308594 488.058594 L 618.308594 380.527344 C 618.308594 377.875 621.191406 376.203125 623.492188 377.527344 L 716.59375 431.269531 Z M 716.59375 431.316406 "/>
<path style=" stroke:none;fill-rule:nonzero;fill:rgb(98.823529%,92.54902%,42.745098%);fill-opacity:1;" d="M 495.015625 344.980469 L 259.199219 344.980469 C 257.777344 344.980469 256.621094 346.136719 256.621094 347.5625 L 256.621094 348.910156 C 256.621094 350.339844 257.777344 351.496094 259.199219 351.496094 L 495.015625 351.496094 C 496.441406 351.496094 497.597656 350.339844 497.597656 348.910156 L 497.597656 347.5625 C 497.597656 346.136719 496.441406 344.980469 495.015625 344.980469 Z M 495.015625 344.980469 "/>
<path style=" stroke:none;fill-rule:nonzero;fill:rgb(98.823529%,92.54902%,42.745098%);fill-opacity:1;" d="M 454.09375 361.800781 L 259.199219 361.800781 C 257.777344 361.800781 256.621094 362.957031 256.621094 364.382812 L 256.621094 365.730469 C 256.621094 367.160156 257.777344 368.316406 259.199219 368.316406 L 454.09375 368.316406 C 455.523438 368.316406 456.679688 367.160156 456.679688 365.730469 L 456.679688 364.382812 C 456.679688 362.957031 455.523438 361.800781 454.09375 361.800781 Z M 454.09375 361.800781 "/>
<path style=" stroke:none;fill-rule:nonzero;fill:rgb(98.823529%,92.54902%,42.745098%);fill-opacity:1;" d="M 454.09375 378.597656 L 259.199219 378.597656 C 257.777344 378.597656 256.621094 379.753906 256.621094 381.179688 L 256.621094 382.53125 C 256.621094 383.957031 257.777344 385.109375 259.199219 385.109375 L 454.09375 385.109375 C 455.523438 385.109375 456.679688 383.957031 456.679688 382.53125 L 456.679688 381.179688 C 456.679688 379.753906 455.523438 378.597656 454.09375 378.597656 Z M 454.09375 378.597656 "/>
<path style=" stroke:none;fill-rule:nonzero;fill:rgb(100%,100%,100%);fill-opacity:1;" d="M 477.03125 527.886719 L 477.03125 419.078125 C 477.03125 415.761719 474.347656 413.078125 471.03125 413.078125 L 262.621094 413.078125 C 259.304688 413.078125 256.621094 415.761719 256.621094 419.078125 L 256.621094 527.886719 C 256.621094 531.203125 259.304688 533.890625 262.621094 533.890625 L 471.03125 533.890625 C 474.347656 533.890625 477.03125 531.203125 477.03125 527.886719 Z M 477.03125 527.886719 "/>
<path style=" stroke:none;fill-rule:nonzero;fill:rgb(1.176471%,49.411765%,90.196079%);fill-opacity:1;" d="M 324.082031 499.296875 L 307.980469 499.296875 L 307.980469 516.601562 L 324.082031 516.601562 Z M 324.082031 499.296875 "/>
<path style=" stroke:none;fill-rule:nonzero;fill:rgb(98.823529%,92.54902%,42.745098%);fill-opacity:1;" d="M 349.484375 481.148438 L 333.386719 481.148438 L 333.386719 516.601562 L 349.484375 516.601562 Z M 349.484375 481.148438 "/>
<path style=" stroke:none;fill-rule:nonzero;fill:rgb(1.176471%,49.411765%,90.196079%);fill-opacity:1;" d="M 374.886719 487.199219 L 358.789062 487.199219 L 358.789062 516.601562 L 374.886719 516.601562 Z M 374.886719 487.199219 "/>
<path style=" stroke:none;fill-rule:nonzero;fill:rgb(98.823529%,92.54902%,42.745098%);fill-opacity:1;" d="M 400.289062 469.050781 L 384.191406 469.050781 L 384.191406 516.601562 L 400.289062 516.601562 Z M 400.289062 469.050781 "/>
<path style=" stroke:none;fill-rule:nonzero;fill:rgb(1.176471%,49.411765%,90.196079%);fill-opacity:1;" d="M 425.691406 450.902344 L 409.59375 450.902344 L 409.59375 516.601562 L 425.691406 516.601562 Z M 425.691406 450.902344 "/>
<path style="fill:none;stroke-width:1.0882;stroke-linecap:butt;stroke-linejoin:miter;stroke:rgb(13.725491%,30.980393%,43.921569%);stroke-opacity:1;stroke-miterlimit:10;" d="M 179.163735 279.001467 L 202.400923 261.866954 L 212.716974 270.26418 L 242.774093 248.729285 " transform="matrix(1.722892,0,0,1.723039,0,0)"/>
<path style=" stroke:none;fill-rule:nonzero;fill:rgb(13.725491%,30.980393%,43.921569%);fill-opacity:1;" d="M 421.414062 425.683594 L 420.226562 428.964844 L 419.015625 432.246094 L 416.78125 429.546875 L 414.546875 426.871094 L 417.992188 426.289062 Z M 421.414062 425.683594 "/>
<path style=" stroke:none;fill-rule:nonzero;fill:rgb(98.823529%,92.54902%,42.745098%);fill-opacity:1;" d="M 127.441406 490.429688 C 133.976562 502.390625 149.167969 506.460938 160.777344 499.363281 L 393.800781 357.242188 L 383.445312 338.28125 L 137.933594 457.535156 C 125.695312 463.492188 120.90625 478.472656 127.417969 490.40625 Z M 127.441406 490.429688 "/>
<path style=" stroke:none;fill-rule:nonzero;fill:rgb(18.82353%,18.82353%,18.82353%);fill-opacity:1;" d="M 647.988281 206.089844 C 606.375 129.945312 510.972656 101.910156 434.859375 143.507812 C 358.71875 185.058594 330.757812 280.535156 372.304688 356.660156 C 413.898438 432.757812 509.296875 460.769531 585.414062 419.21875 C 661.550781 377.621094 689.582031 282.1875 647.988281 206.089844 Z M 390.984375 346.445312 C 355.042969 280.628906 379.214844 198.132812 445.070312 162.191406 C 510.878906 126.222656 593.367188 150.441406 629.308594 216.257812 C 665.273438 282.070312 641.035156 364.570312 575.246094 400.535156 C 509.4375 436.480469 426.949219 412.308594 390.984375 346.445312 Z M 390.984375 346.445312 "/>
<path style=" stroke:none;fill-rule:nonzero;fill:rgb(18.82353%,18.82353%,18.82353%);fill-opacity:1;" d="M 635.40625 212.953125 C 597.578125 143.789062 510.902344 118.335938 441.742188 156.09375 C 372.582031 193.851562 347.179688 280.582031 384.914062 349.773438 C 422.714844 418.914062 509.367188 444.34375 578.550781 406.609375 C 647.710938 368.804688 673.160156 282.097656 635.40625 212.953125 Z M 575.273438 400.535156 C 509.460938 436.480469 426.972656 412.308594 391.007812 346.445312 C 355.066406 280.628906 379.234375 198.132812 445.09375 162.191406 C 510.902344 126.222656 593.394531 150.441406 629.332031 216.257812 C 665.296875 282.070312 641.058594 364.570312 575.273438 400.535156 Z M 575.273438 400.535156 "/>
<use xlink:href="#surface8" mask="url(#mask1)"/>
<use xlink:href="#surface11" mask="url(#mask2)"/>
<path style=" stroke:none;fill-rule:nonzero;fill:rgb(1.176471%,49.411765%,90.196079%);fill-opacity:1;" d="M 467.109375 305.140625 C 464.1875 305.140625 461.550781 304.640625 459.1875 303.644531 C 456.871094 302.644531 455.03125 301.203125 453.667969 299.324219 C 452.308594 297.441406 451.609375 295.222656 451.570312 292.660156 L 460.570312 292.660156 C 460.6875 294.382812 461.289062 295.742188 462.367188 296.742188 C 463.488281 297.742188 465.007812 298.242188 466.929688 298.242188 C 468.886719 298.242188 470.425781 297.78125 471.546875 296.863281 C 472.667969 295.902344 473.226562 294.660156 473.226562 293.140625 C 473.226562 291.902344 472.847656 290.882812 472.085938 290.082031 C 471.328125 289.28125 470.367188 288.664062 469.207031 288.222656 C 468.085938 287.742188 466.527344 287.222656 464.527344 286.660156 C 461.808594 285.863281 459.589844 285.082031 457.867188 284.320312 C 456.1875 283.523438 454.730469 282.34375 453.488281 280.78125 C 452.289062 279.183594 451.6875 277.0625 451.6875 274.421875 C 451.6875 271.941406 452.308594 269.78125 453.550781 267.941406 C 454.789062 266.101562 456.527344 264.703125 458.769531 263.742188 C 461.007812 262.742188 463.566406 262.242188 466.449219 262.242188 C 470.769531 262.242188 474.265625 263.304688 476.949219 265.421875 C 479.667969 267.5 481.167969 270.421875 481.445312 274.183594 L 472.207031 274.183594 C 472.128906 272.742188 471.507812 271.5625 470.347656 270.644531 C 469.226562 269.679688 467.726562 269.203125 465.847656 269.203125 C 464.210938 269.203125 462.886719 269.621094 461.886719 270.460938 C 460.929688 271.304688 460.449219 272.523438 460.449219 274.121094 C 460.449219 275.242188 460.808594 276.183594 461.527344 276.941406 C 462.289062 277.664062 463.207031 278.261719 464.289062 278.742188 C 465.40625 279.183594 466.96875 279.703125 468.96875 280.300781 C 471.6875 281.101562 473.90625 281.902344 475.625 282.703125 C 477.347656 283.503906 478.828125 284.703125 480.066406 286.300781 C 481.308594 287.902344 481.925781 290.003906 481.925781 292.601562 C 481.925781 294.84375 481.347656 296.921875 480.1875 298.84375 C 479.027344 300.761719 477.328125 302.300781 475.085938 303.460938 C 472.847656 304.582031 470.1875 305.140625 467.109375 305.140625 Z M 497.605469 269.621094 L 497.605469 280.125 L 511.707031 280.125 L 511.707031 286.78125 L 497.605469 286.78125 L 497.605469 297.882812 L 513.507812 297.882812 L 513.507812 304.722656 L 489.207031 304.722656 L 489.207031 262.78125 L 513.507812 262.78125 L 513.507812 269.621094 Z M 566.796875 262.84375 L 566.796875 304.722656 L 558.394531 304.722656 L 558.394531 277.480469 L 547.179688 304.722656 L 540.816406 304.722656 L 529.539062 277.480469 L 529.539062 304.722656 L 521.140625 304.722656 L 521.140625 262.84375 L 530.679688 262.84375 L 543.996094 293.984375 L 557.316406 262.84375 Z M 566.796875 262.84375 "/>
<use xlink:href="#surface14" mask="url(#mask3)"/>
<path style=" stroke:none;fill-rule:nonzero;fill:rgb(1.176471%,49.411765%,90.196079%);fill-opacity:1;" d="M 867.914062 228.308594 L 837.441406 182.617188 L 879.382812 187.664062 Z M 867.914062 228.308594 "/>
<path style=" stroke:none;fill-rule:nonzero;fill:rgb(1.176471%,49.411765%,90.196079%);fill-opacity:1;" d="M 947.589844 175.195312 L 905.4375 170.308594 L 917.117188 129.527344 Z M 947.589844 175.195312 "/>
<path style=" stroke:none;fill-rule:nonzero;fill:rgb(98.823529%,92.54902%,42.745098%);fill-opacity:1;" d="M 946.566406 177.730469 L 870.636719 228.355469 L 882.011719 187.964844 L 899.761719 190.109375 L 904.695312 172.867188 Z M 946.566406 177.730469 "/>
<path style=" stroke:none;fill-rule:nonzero;fill:rgb(98.823529%,92.54902%,42.745098%);fill-opacity:1;" d="M 914.394531 129.457031 L 902.785156 170.007812 L 902.066406 172.542969 L 897.832031 187.246094 L 882.734375 185.433594 L 881.40625 185.269531 L 880.105469 185.128906 L 838.464844 180.105469 Z M 914.394531 129.457031 "/>
<path style=" stroke:none;fill-rule:nonzero;fill:rgb(100%,100%,100%);fill-opacity:1;" d="M 832.394531 268.136719 C 778.519531 268.136719 734.667969 311.992188 734.667969 365.871094 C 734.667969 419.753906 778.519531 463.605469 832.394531 463.605469 C 886.269531 463.605469 930.121094 419.753906 930.121094 365.871094 C 930.121094 311.992188 886.269531 268.136719 832.394531 268.136719 Z M 832.394531 268.136719 "/>
<path style=" stroke:none;fill-rule:nonzero;fill:rgb(18.82353%,18.82353%,18.82353%);fill-opacity:1;" d="M 832.394531 288.167969 C 875.242188 288.167969 910.089844 323.042969 910.089844 365.871094 C 910.089844 408.703125 875.21875 443.574219 832.394531 443.574219 C 789.566406 443.574219 754.695312 408.703125 754.695312 365.871094 C 754.695312 323.042969 789.566406 288.167969 832.394531 288.167969 Z M 832.394531 267.835938 C 778.332031 267.835938 734.367188 311.804688 734.367188 365.871094 C 734.367188 419.9375 778.332031 463.910156 832.394531 463.910156 C 886.457031 463.910156 930.421875 419.9375 930.421875 365.871094 C 930.421875 311.804688 886.457031 267.835938 832.394531 267.835938 Z M 832.394531 267.835938 "/>
<path style=" stroke:none;fill-rule:nonzero;fill:rgb(1.176471%,49.411765%,90.196079%);fill-opacity:1;" d="M 832.394531 307.40625 C 800.105469 307.40625 773.910156 333.582031 773.910156 365.894531 C 773.910156 398.210938 800.082031 424.382812 832.394531 424.382812 C 864.707031 424.382812 890.875 398.210938 890.875 365.894531 C 890.875 333.582031 864.707031 307.40625 832.394531 307.40625 Z M 832.394531 404.652344 C 810.992188 404.652344 793.613281 387.300781 793.613281 365.871094 C 793.613281 344.445312 810.96875 327.089844 832.394531 327.089844 C 853.820312 327.089844 871.171875 344.445312 871.171875 365.871094 C 871.171875 387.300781 853.820312 404.652344 832.394531 404.652344 Z M 832.394531 404.652344 "/>
<path style=" stroke:none;fill-rule:nonzero;fill:rgb(1.176471%,49.411765%,90.196079%);fill-opacity:1;" d="M 851.21875 370.300781 C 853.675781 359.886719 847.226562 349.449219 836.808594 346.988281 C 826.394531 344.53125 815.957031 350.980469 813.5 361.398438 C 811.039062 371.816406 817.492188 382.253906 827.90625 384.710938 C 838.324219 387.171875 848.761719 380.71875 851.21875 370.300781 Z M 851.21875 370.300781 "/>
<path style=" stroke:none;fill-rule:nonzero;fill:rgb(18.82353%,18.82353%,18.82353%);fill-opacity:1;" d="M 922.863281 272 L 921.375 264.554688 C 920.699219 261.136719 916.464844 259.855469 914.023438 262.320312 L 895.644531 280.699219 C 894.621094 281.722656 894.15625 283.210938 894.457031 284.632812 L 896.738281 296.054688 L 893.085938 299.707031 L 833.558594 359.242188 L 825.808594 352.144531 L 825.808594 372.480469 L 846.140625 372.480469 L 839.046875 364.730469 L 898.574219 305.199219 L 902.226562 301.546875 L 913.648438 303.824219 C 915.070312 304.105469 916.558594 303.660156 917.582031 302.636719 L 935.960938 284.261719 C 938.425781 281.792969 937.144531 277.582031 933.726562 276.90625 L 926.28125 275.417969 C 924.558594 275.070312 923.210938 273.71875 922.863281 272 Z M 922.863281 272 "/>
<path style=" stroke:none;fill-rule:nonzero;fill:rgb(1.176471%,49.411765%,90.196079%);fill-opacity:1;" d="M 627.167969 93.789062 L 647.035156 82.625 L 647.941406 84.394531 L 676.355469 55.375 L 675.761719 54.21875 C 674.683594 52.117188 675.511719 49.539062 677.613281 48.460938 L 678.277344 48.121094 C 680.378906 47.042969 682.957031 47.875 684.035156 49.976562 L 716.179688 112.640625 C 717.257812 114.742188 716.429688 117.320312 714.328125 118.398438 L 713.664062 118.742188 C 711.566406 119.816406 708.984375 118.988281 707.90625 116.886719 L 707.316406 115.730469 L 667.175781 121.882812 L 668.082031 123.652344 L 661.5625 126.691406 L 681.261719 154.558594 L 673.535156 158.523438 L 653.640625 130.382812 L 647.425781 133.277344 Z M 627.167969 93.789062 "/>
<path style=" stroke:none;fill-rule:nonzero;fill:rgb(98.823529%,92.54902%,42.745098%);fill-opacity:1;" d="M 668.074219 117.507812 C 668.429688 117.324219 668.699219 117.015625 668.824219 116.636719 C 668.960938 116.246094 668.929688 115.8125 668.742188 115.4375 L 647.695312 74.414062 C 647.503906 74.039062 647.171875 73.761719 646.769531 73.644531 C 646.371094 73.523438 645.941406 73.570312 645.574219 73.773438 L 625.707031 84.941406 C 624.988281 85.34375 624.71875 86.246094 625.09375 86.980469 L 645.351562 126.472656 C 645.730469 127.207031 646.621094 127.511719 647.367188 127.164062 L 668.023438 117.539062 C 668.039062 117.527344 668.058594 117.519531 668.074219 117.511719 Z M 645.691406 77.234375 L 665.277344 115.417969 L 647.40625 123.746094 L 628.503906 86.890625 L 645.691406 77.230469 Z M 645.691406 77.234375 "/>
<path style=" stroke:none;fill-rule:nonzero;fill:rgb(98.823529%,92.54902%,42.745098%);fill-opacity:1;" d="M 707.726562 109.371094 C 708.011719 109.226562 708.246094 108.992188 708.394531 108.703125 C 708.617188 108.265625 708.617188 107.742188 708.394531 107.304688 L 677.429688 46.949219 C 677.203125 46.507812 676.78125 46.207031 676.296875 46.132812 C 675.808594 46.058594 675.316406 46.21875 674.96875 46.574219 L 646.308594 75.839844 C 645.847656 76.3125 645.738281 77.027344 646.039062 77.617188 L 665.171875 114.914062 C 665.472656 115.5 666.117188 115.832031 666.769531 115.726562 L 707.257812 109.515625 C 707.421875 109.492188 707.582031 109.441406 707.726562 109.367188 Z M 675.671875 50.246094 L 704.6875 106.808594 L 667.398438 112.527344 L 649.277344 77.203125 Z M 675.671875 50.246094 "/>
<path style=" stroke:none;fill-rule:nonzero;fill:rgb(98.823529%,92.54902%,42.745098%);fill-opacity:1;" d="M 677.320312 40.738281 L 677.980469 40.398438 C 680.082031 39.320312 682.660156 40.148438 683.738281 42.253906 L 715.882812 104.914062 C 716.960938 107.015625 716.132812 109.59375 714.035156 110.671875 L 713.371094 111.011719 C 711.269531 112.089844 708.691406 111.257812 707.613281 109.15625 L 675.46875 46.496094 C 674.390625 44.390625 675.21875 41.8125 677.320312 40.738281 Z M 677.320312 40.738281 "/>
<path style=" stroke:none;fill-rule:nonzero;fill:rgb(1.176471%,49.411765%,90.196079%);fill-opacity:1;" d="M 714.070312 112.378906 L 714.738281 112.039062 C 717.589844 110.574219 718.714844 107.066406 717.253906 104.214844 L 685.109375 41.550781 C 683.644531 38.695312 680.136719 37.566406 677.285156 39.027344 L 676.621094 39.371094 C 673.769531 40.832031 672.640625 44.34375 674.105469 47.195312 L 706.25 109.859375 C 707.714844 112.714844 711.21875 113.84375 714.070312 112.378906 Z M 678.6875 41.761719 C 680.027344 41.074219 681.6875 41.605469 682.378906 42.953125 L 714.523438 105.617188 C 715.210938 106.960938 714.679688 108.613281 713.335938 109.304688 L 712.667969 109.644531 C 711.328125 110.335938 709.671875 109.804688 708.980469 108.460938 L 676.835938 45.792969 C 676.144531 44.453125 676.675781 42.792969 678.023438 42.101562 Z M 678.6875 41.761719 "/>
<path style=" stroke:none;fill-rule:nonzero;fill:rgb(98.823529%,92.54902%,42.745098%);fill-opacity:1;" d="M 689.972656 54.488281 C 699.0625 53.738281 708.132812 58.417969 712.558594 67.046875 C 716.984375 75.671875 715.492188 85.769531 709.582031 92.71875 Z M 689.972656 54.488281 "/>
<path style=" stroke:none;fill-rule:nonzero;fill:rgb(1.176471%,49.411765%,90.196079%);fill-opacity:1;" d="M 710.285156 94.085938 C 710.460938 93.992188 710.617188 93.871094 710.753906 93.714844 C 717.277344 86.046875 718.523438 75.304688 713.925781 66.34375 C 709.328125 57.382812 699.882812 52.128906 689.847656 52.957031 C 689.335938 52.996094 688.878906 53.292969 688.632812 53.738281 C 688.382812 54.1875 688.371094 54.730469 688.605469 55.183594 L 708.214844 93.414062 C 708.449219 93.867188 708.898438 94.179688 709.40625 94.238281 C 709.714844 94.273438 710.015625 94.21875 710.285156 94.078125 Z M 692.449219 55.949219 C 700.339844 56.144531 707.527344 60.601562 711.191406 67.746094 C 714.859375 74.890625 714.285156 83.328125 709.839844 89.851562 Z M 692.449219 55.949219 "/>
<path style=" stroke:none;fill-rule:nonzero;fill:rgb(98.823529%,92.54902%,42.745098%);fill-opacity:1;" d="M 673.957031 153.210938 L 681.683594 149.246094 C 682.078125 149.042969 682.367188 148.679688 682.472656 148.242188 C 682.578125 147.808594 682.492188 147.355469 682.234375 146.988281 L 662.28125 118.757812 C 661.839844 118.132812 661.003906 117.925781 660.324219 118.277344 L 652.597656 122.242188 C 652.199219 122.445312 651.914062 122.808594 651.808594 123.242188 C 651.703125 123.675781 651.789062 124.128906 652.046875 124.496094 L 672 152.726562 C 672.441406 153.351562 673.277344 153.558594 673.957031 153.210938 Z M 678.707031 147.316406 L 673.738281 149.867188 L 655.574219 124.171875 L 660.542969 121.621094 Z M 678.707031 147.316406 "/>
<path style=" stroke:none;fill-rule:nonzero;fill:rgb(1.176471%,49.411765%,90.196079%);fill-opacity:1;" d="M 723.878906 61.503906 L 739.402344 53.539062 C 740.15625 53.152344 740.453125 52.226562 740.066406 51.472656 C 739.679688 50.71875 738.753906 50.417969 738 50.804688 L 722.476562 58.769531 C 721.722656 59.15625 721.425781 60.082031 721.8125 60.839844 C 722.199219 61.59375 723.125 61.890625 723.878906 61.503906 Z M 723.878906 61.503906 "/>
<path style=" stroke:none;fill-rule:nonzero;fill:rgb(100%,99.215686%,99.215686%);fill-opacity:1;" d="M 726.546875 71.800781 L 743.976562 72.671875 Z M 726.546875 71.800781 "/>
<path style=" stroke:none;fill-rule:nonzero;fill:rgb(1.176471%,49.411765%,90.196079%);fill-opacity:1;" d="M 744.671875 74.039062 C 745.144531 73.796875 745.480469 73.316406 745.507812 72.75 C 745.546875 71.902344 744.894531 71.179688 744.050781 71.140625 L 726.625 70.269531 C 725.777344 70.226562 725.054688 70.878906 725.015625 71.722656 C 724.976562 72.570312 725.625 73.292969 726.472656 73.332031 L 743.898438 74.203125 C 744.175781 74.21875 744.445312 74.15625 744.675781 74.039062 Z M 744.671875 74.039062 "/>
<path style=" stroke:none;fill-rule:nonzero;fill:rgb(100%,99.215686%,99.215686%);fill-opacity:1;" d="M 723.929688 82.945312 L 738.589844 92.417969 Z M 723.929688 82.945312 "/>
<path style=" stroke:none;fill-rule:nonzero;fill:rgb(1.176471%,49.411765%,90.196079%);fill-opacity:1;" d="M 739.292969 93.785156 C 739.523438 93.664062 739.730469 93.488281 739.878906 93.25 C 740.339844 92.539062 740.136719 91.585938 739.421875 91.128906 L 724.757812 81.65625 C 724.046875 81.195312 723.097656 81.398438 722.636719 82.113281 C 722.179688 82.824219 722.382812 83.777344 723.097656 84.234375 L 737.757812 93.707031 C 738.238281 94.015625 738.824219 94.023438 739.292969 93.78125 Z M 739.292969 93.785156 "/>
<path style=" stroke:none;fill-rule:nonzero;fill:rgb(100%,99.215686%,99.215686%);fill-opacity:1;" d="M 705.953125 28.792969 L 705.09375 46.230469 Z M 705.953125 28.792969 "/>
<path style=" stroke:none;fill-rule:nonzero;fill:rgb(1.176471%,49.411765%,90.196079%);fill-opacity:1;" d="M 705.789062 47.59375 C 706.261719 47.351562 706.597656 46.871094 706.625 46.304688 L 707.480469 28.867188 C 707.523438 28.019531 706.871094 27.296875 706.027344 27.253906 C 705.179688 27.210938 704.460938 27.867188 704.417969 28.710938 L 703.558594 46.148438 C 703.519531 46.992188 704.167969 47.71875 705.015625 47.757812 C 705.292969 47.769531 705.558594 47.710938 705.792969 47.59375 Z M 705.789062 47.59375 "/>
<path style=" stroke:none;fill-rule:nonzero;fill:rgb(100%,99.215686%,99.215686%);fill-opacity:1;" d="M 725.128906 35.933594 L 715.671875 50.601562 Z M 725.128906 35.933594 "/>
<path style=" stroke:none;fill-rule:nonzero;fill:rgb(1.176471%,49.411765%,90.196079%);fill-opacity:1;" d="M 716.375 51.96875 C 716.605469 51.847656 716.8125 51.667969 716.960938 51.433594 L 726.417969 36.769531 C 726.878906 36.058594 726.675781 35.105469 725.960938 34.644531 C 725.25 34.1875 724.296875 34.390625 723.839844 35.101562 L 714.382812 49.769531 C 713.925781 50.480469 714.128906 51.433594 714.839844 51.890625 C 715.320312 52.199219 715.90625 52.207031 716.378906 51.964844 Z M 716.375 51.96875 "/>
<path style=" stroke:none;fill-rule:nonzero;fill:rgb(0%,0%,0%);fill-opacity:1;" d="M 125.730469 418.363281 C 121.082031 417.457031 115.382812 419.617188 112.0625 415.050781 C 110.546875 412.964844 110.070312 410.613281 110.160156 408.203125 C 111.257812 407.523438 112.242188 407.183594 112.242188 407.183594 C 112.242188 407.183594 112.242188 407.183594 112.242188 407.179688 C 112.476562 406.765625 119.710938 389.585938 110.636719 384 C 101.5625 378.414062 97.027344 378.921875 94.734375 379.71875 C 83.882812 377.644531 70.699219 395.144531 73.324219 404.988281 C 73.75 406.582031 74.238281 407.9375 74.738281 409.109375 C 73.222656 410.5 71.445312 411.597656 69.984375 413.0625 C 68.21875 414.832031 67.21875 417.085938 67.558594 419.65625 C 67.722656 420.882812 68.128906 422.003906 68.703125 423.039062 C 56.800781 429.664062 66.9375 434.945312 73.171875 443.636719 C 79.59375 452.582031 102.070312 459.988281 117.464844 452.769531 C 126.027344 448.753906 127.753906 435.90625 125.273438 434.246094 C 128.101562 432.285156 130.742188 429.882812 131.363281 426.285156 C 132.066406 422.191406 129.578125 419.117188 125.726562 418.363281 Z M 69.8125 422.453125 C 69.710938 422.503906 69.617188 422.554688 69.519531 422.605469 C 68.597656 420.972656 68.109375 419.15625 68.558594 417.203125 C 69.210938 414.363281 71.816406 412.675781 73.914062 411.007812 C 74.328125 410.675781 74.738281 410.339844 75.132812 409.984375 C 78.269531 416.765625 81.152344 416.699219 69.8125 422.453125 Z M 108.449219 415.554688 C 106.078125 412.460938 107.492188 410.230469 109.230469 408.851562 C 109.25 410.136719 109.429688 411.414062 109.847656 412.679688 C 110.75 415.402344 112.492188 417.308594 114.832031 418.292969 C 112.1875 417.894531 109.734375 417.226562 108.449219 415.554688 Z M 124.464844 433.65625 C 122.785156 432.332031 121.464844 430.320312 123.84375 426.214844 C 126.789062 421.136719 124.449219 419.730469 120.71875 419.0625 C 124.570312 419 129.152344 418.910156 130.363281 423.1875 C 131.675781 427.832031 127.953125 431.25 124.464844 433.65625 Z M 124.464844 433.65625 "/>
<path style=" stroke:none;fill-rule:nonzero;fill:rgb(100%,70.980394%,54.901963%);fill-opacity:1;" d="M 112.261719 427.683594 C 112.261719 427.683594 111.574219 447.800781 105.3125 449.675781 C 99.050781 451.554688 86.425781 429.976562 86.425781 429.976562 C 86.425781 429.976562 90.644531 429.035156 93.25 423.835938 C 93.914062 422.503906 94.191406 420.847656 94.238281 419.125 C 94.335938 415.320312 93.296875 411.183594 92.796875 409.40625 C 92.640625 408.878906 92.539062 408.558594 92.527344 408.523438 L 93.238281 408.902344 L 105.195312 415.308594 C 105.195312 415.308594 104.246094 417.191406 103.878906 421.070312 C 103.75 422.511719 104.414062 423.90625 105.308594 425.085938 C 106.820312 427.078125 112.257812 427.683594 112.257812 427.683594 Z M 112.261719 427.683594 "/>
<path style=" stroke:none;fill-rule:nonzero;fill:rgb(100%,70.980394%,54.901963%);fill-opacity:1;" d="M 94.242188 419.128906 C 94.339844 415.320312 93.300781 411.183594 92.796875 409.40625 C 92.945312 409.238281 93.089844 409.074219 93.242188 408.902344 L 105.199219 415.3125 C 105.199219 415.3125 104.25 417.191406 103.882812 421.070312 C 103.753906 422.511719 104.417969 423.90625 105.3125 425.085938 C 101.78125 423.417969 97.613281 421.09375 94.242188 419.128906 Z M 94.242188 419.128906 "/>
<path style=" stroke:none;fill-rule:nonzero;fill:rgb(100%,70.980394%,54.901963%);fill-opacity:1;" d="M 112.160156 408.105469 C 112.160156 408.105469 112.160156 408.113281 112.160156 408.117188 C 112.078125 408.433594 110.769531 413.535156 109.394531 415.476562 C 108.074219 417.351562 108.695312 419.785156 105.761719 419.660156 C 105.753906 419.660156 105.746094 419.660156 105.734375 419.660156 C 101.511719 419.277344 93.734375 417.6875 93.128906 416.445312 C 92.347656 414.839844 90.492188 409.785156 90.492188 409.785156 C 90.492188 409.785156 86.714844 408.277344 86.679688 406.449219 C 86.644531 404.621094 85.75 402.101562 87.542969 401.527344 C 87.882812 401.417969 88.203125 401.449219 88.519531 401.578125 C 89.328125 401.902344 90.074219 402.824219 90.789062 403.503906 C 90.789062 403.503906 90.792969 403.507812 90.796875 403.511719 C 91.101562 403.796875 91.394531 404.039062 91.6875 404.167969 C 91.6875 404.167969 91.695312 404.167969 91.695312 404.175781 C 91.707031 404.175781 91.71875 404.1875 91.726562 404.1875 C 91.828125 404.234375 91.933594 404.265625 92.042969 404.277344 L 92.050781 404.277344 C 98.039062 405.746094 104.476562 395.414062 104.476562 395.414062 C 104.632812 395.175781 104.769531 394.945312 104.898438 394.710938 C 104.898438 394.710938 110.101562 397.621094 112.03125 395.414062 C 112.289062 396.714844 112.433594 398.304688 111.917969 399.355469 C 110.917969 401.417969 112.164062 402.910156 112.269531 406.351562 C 112.28125 406.835938 112.242188 407.4375 112.167969 408.109375 Z M 112.160156 408.105469 "/>
<path style=" stroke:none;fill-rule:nonzero;fill:rgb(100%,70.980394%,54.901963%);fill-opacity:1;" d="M 158.992188 394.046875 C 158.992188 395.066406 152.894531 401.867188 152.152344 404.332031 C 152.003906 404.605469 151.886719 404.886719 151.808594 405.167969 C 151.191406 407.410156 146.269531 430.617188 144.425781 431.765625 C 143.371094 432.417969 135.441406 435.730469 128.828125 438.453125 C 123.847656 440.5 119.621094 442.210938 119.621094 442.210938 L 115.585938 432.867188 L 113.839844 428.816406 C 114.050781 428.640625 127.113281 426.371094 132.3125 423.796875 C 133.050781 424.070312 133.730469 423.6875 134.179688 422.46875 C 134.878906 421.515625 136.144531 418.652344 137.601562 415.089844 C 140.949219 408.519531 145.273438 400.828125 145.554688 399.835938 C 145.90625 398.605469 146.6875 392.828125 146.898438 391.226562 C 146.933594 390.964844 146.953125 390.816406 146.953125 390.816406 C 147.773438 387.78125 148.507812 383.902344 148.9375 382.324219 C 149.550781 380.074219 153.039062 375.566406 153.242188 376.179688 C 153.449219 376.792969 153.652344 376.996094 153.242188 378.226562 C 152.832031 379.460938 151.398438 382.53125 151.191406 383.757812 C 150.988281 384.992188 150.375 388.726562 150.375 388.726562 C 150.375 388.726562 151.785156 387.5 152.632812 388.035156 C 153.472656 388.574219 153.863281 389.191406 153.863281 389.191406 C 153.863281 389.191406 155.78125 388.183594 156.554688 388.726562 C 157.273438 389.234375 157.523438 389.734375 157.546875 389.796875 C 157.546875 389.796875 157.550781 389.800781 157.550781 389.804688 C 157.550781 389.804688 158.996094 393.027344 158.996094 394.050781 Z M 158.992188 394.046875 "/>
<use xlink:href="#surface17" mask="url(#mask4)"/>
<path style=" stroke:none;fill-rule:nonzero;fill:rgb(100%,70.980394%,54.901963%);fill-opacity:1;" d="M 63.144531 664.796875 C 61.269531 669.019531 59.839844 670.832031 60.652344 672.796875 C 61.460938 674.753906 70.667969 676.019531 74.867188 678.761719 C 79.0625 681.503906 90.746094 687.851562 92.246094 685.75 C 93.75 683.65625 93.070312 681.832031 91.921875 681.191406 C 90.777344 680.554688 87.492188 677.769531 85.160156 673.746094 C 82.832031 669.71875 80.753906 665.480469 79.378906 663.035156 C 78.1875 660.910156 78.839844 657.832031 79.035156 657.058594 C 79.066406 656.945312 79.085938 656.878906 79.085938 656.878906 C 84.792969 637.273438 97.488281 594.050781 98.851562 589.414062 C 98.925781 589.164062 98.871094 588.886719 98.707031 588.691406 C 96.917969 586.566406 86.492188 574.648438 81.921875 579.980469 C 81.832031 580.082031 81.773438 580.214844 81.75 580.351562 C 81.21875 583.542969 74.796875 621.941406 71.773438 635.253906 C 70.277344 641.824219 68.664062 647.867188 67.523438 652.574219 L 67.523438 652.582031 C 67.441406 652.824219 64.984375 660.636719 63.140625 664.796875 Z M 63.144531 664.796875 "/>
<path style=" stroke:none;fill-rule:nonzero;fill:rgb(0%,0%,0%);fill-opacity:1;" d="M 92.234375 679.710938 C 92.265625 679.757812 92.300781 679.796875 92.339844 679.835938 C 92.949219 680.398438 97.960938 685.152344 96.339844 687.941406 C 94.621094 690.910156 92.65625 690.949219 89.792969 689.703125 C 86.929688 688.460938 78.085938 683.148438 72.625 680.242188 C 67.167969 677.332031 66.828125 676.421875 65.652344 676.890625 C 64.476562 677.359375 64.8125 679.585938 63.519531 679.210938 C 62.234375 678.835938 57.660156 677.402344 57.796875 675.820312 C 57.933594 674.238281 59.566406 669.335938 61.023438 665.804688 C 62.480469 662.273438 63.382812 659.648438 64.300781 659.558594 C 65.21875 659.464844 66.472656 663.539062 72.445312 667.003906 C 78.414062 670.464844 83.511719 672.863281 85.140625 672.222656 C 86.679688 671.613281 91.703125 678.929688 92.234375 679.710938 Z M 92.234375 679.710938 "/>
<path style=" stroke:none;fill-rule:nonzero;fill:rgb(100%,70.980394%,54.901963%);fill-opacity:1;" d="M 116.746094 673.367188 C 116.515625 678.363281 115.886719 680.753906 117.207031 682.417969 C 118.527344 684.074219 126.753906 681.703125 131.203125 682.8125 C 135.652344 683.917969 147.621094 685.695312 148.222656 682.984375 C 148.820312 680.277344 147.652344 678.710938 146.476562 678.523438 C 145.300781 678.332031 141.609375 676.824219 138.332031 673.6875 C 135.054688 670.550781 131.925781 667.097656 129.96875 665.179688 C 128.269531 663.511719 127.835938 660.152344 127.75 659.289062 C 127.738281 659.164062 127.734375 659.085938 127.734375 659.085938 C 126.261719 637.074219 123.105469 588.503906 122.765625 583.292969 C 122.75 583.007812 122.613281 582.753906 122.410156 582.621094 C 120.207031 581.1875 107.507812 573.300781 105.34375 580.480469 C 105.304688 580.617188 105.296875 580.769531 105.324219 580.921875 C 105.898438 584.34375 112.828125 625.578125 114.550781 640.191406 C 115.402344 647.402344 115.980469 654.132812 116.527344 659.324219 L 116.527344 659.332031 C 116.542969 659.609375 116.972656 668.453125 116.75 673.367188 Z M 116.746094 673.367188 "/>
<path style=" stroke:none;fill-rule:nonzero;fill:rgb(0%,0%,0%);fill-opacity:1;" d="M 146.261719 676.902344 C 146.300781 676.933594 146.34375 676.960938 146.386719 676.980469 C 147.085938 677.308594 152.871094 680.121094 152.398438 683.574219 C 151.894531 687.246094 150.238281 688.054688 147.40625 687.941406 C 144.574219 687.824219 135.347656 685.960938 129.773438 685.183594 C 124.199219 684.414062 123.617188 683.628906 122.765625 684.566406 C 121.917969 685.503906 122.925781 687.617188 121.707031 687.75 C 120.492188 687.878906 116.148438 688.242188 115.75 686.59375 C 115.355469 684.941406 115.164062 679.359375 115.261719 675.222656 C 115.359375 671.085938 115.28125 668.089844 116.027344 667.632812 C 116.78125 667.179688 119.160156 670.785156 125.347656 671.914062 C 131.535156 673.042969 136.640625 673.449219 137.8125 672.15625 C 138.921875 670.9375 145.550781 676.320312 146.253906 676.902344 Z M 146.261719 676.902344 "/>
<path style=" stroke:none;fill-rule:nonzero;fill:rgb(18.82353%,18.82353%,18.82353%);fill-opacity:1;" d="M 75.027344 535.273438 C 75.234375 559.515625 76.046875 589.492188 77.269531 591.6875 C 78.496094 593.882812 91.957031 591.089844 105.628906 591.6875 C 107.988281 591.792969 110 591.929688 111.722656 592.074219 C 119.972656 592.757812 121.617188 593.5 123.429688 590.414062 C 123.601562 590.117188 123.765625 589.378906 123.917969 588.261719 C 124.871094 581.273438 125.394531 559.515625 125.476562 539.464844 C 125.484375 538.011719 125.488281 536.566406 125.488281 535.140625 C 125.507812 519.765625 125.25 506.148438 124.726562 502.082031 C 123.894531 495.613281 108.46875 492.230469 96.75 490.589844 C 89.457031 489.566406 83.597656 489.222656 83.597656 489.222656 C 83.597656 489.222656 82.433594 492.121094 80.960938 496.980469 C 78.398438 505.445312 74.898438 519.867188 75.03125 535.273438 Z M 75.027344 535.273438 "/>
<use xlink:href="#surface20" mask="url(#mask5)"/>
<use xlink:href="#surface23" mask="url(#mask6)"/>
<path style=" stroke:none;fill-rule:nonzero;fill:rgb(100%,100%,100%);fill-opacity:1;" d="M 74.253906 435.257812 C 74.171875 434.757812 74.128906 434.476562 74.128906 434.476562 C 74.042969 434.820312 74.089844 435.058594 74.253906 435.257812 Z M 74.253906 435.257812 "/>
<path style=" stroke:none;fill-rule:nonzero;fill:rgb(1.176471%,49.411765%,90.196079%);fill-opacity:1;" d="M 73.292969 434.484375 C 73.292969 434.484375 73.210938 435.460938 73.292969 435.964844 C 73.519531 437.421875 75.019531 440.074219 75.734375 444.117188 C 76.519531 448.527344 77.511719 453.765625 78.542969 458.242188 C 80.851562 468.246094 81.6875 482.335938 80.640625 487.660156 C 79.589844 492.980469 79.171875 501.367188 85.046875 502.730469 C 85.5 502.835938 85.960938 502.714844 86.429688 502.390625 C 88.136719 502.597656 90.390625 502.695312 93.363281 502.726562 C 102.6875 502.816406 117.359375 500.894531 122.476562 499.859375 C 123.191406 499.710938 123.722656 499.585938 124.027344 499.480469 C 124.828125 499.207031 124.753906 497.164062 124.296875 494.320312 C 124.007812 492.5 123.554688 490.351562 123.082031 488.121094 C 122.226562 484.128906 121.285156 479.890625 121.011719 476.867188 C 120.945312 476.15625 120.917969 475.503906 120.9375 474.949219 C 121.121094 469.550781 124.082031 462.757812 125.183594 458.460938 C 125.367188 457.753906 125.5 457.109375 125.558594 456.558594 C 125.976562 452.636719 118.84375 432.179688 117.789062 429.875 C 116.742188 427.566406 109.605469 425.890625 109.605469 425.890625 C 111.074219 431.96875 107.925781 442.242188 104.566406 442.242188 C 101.210938 442.242188 88.195312 429.875 87.101562 428.824219 C 86.003906 427.777344 86.308594 427.988281 83.742188 428.617188 C 81.175781 429.25 73.417969 431.132812 73.296875 434.484375 Z M 73.292969 434.484375 "/>
<path style=" stroke:none;fill-rule:nonzero;fill:rgb(100%,70.980394%,54.901963%);fill-opacity:1;" d="M 73.292969 434.480469 C 73.292969 434.480469 83.699219 434.691406 82.789062 442.324219 C 81.875 449.957031 62.710938 470.25 61.175781 470.25 C 59.644531 470.25 54.851562 469.511719 54.851562 464.328125 C 54.851562 459.148438 67.144531 439.136719 73.292969 434.480469 Z M 73.292969 434.480469 "/>
<path style=" stroke:none;fill-rule:nonzero;fill:rgb(98.823529%,92.54902%,42.745098%);fill-opacity:1;" d="M 108.375 456.101562 L 106.527344 469.191406 L 103.410156 491.296875 L 102.394531 498.546875 C 102.09375 500.660156 100.101562 502.105469 98 501.734375 L 73.078125 497.324219 L 71.058594 496.96875 C 69.058594 496.617188 67.699219 494.75 67.976562 492.742188 L 72.035156 463.5 L 73.734375 451.246094 C 74.023438 449.179688 75.933594 447.742188 78 448.03125 L 105.164062 451.839844 C 107.226562 452.128906 108.671875 454.035156 108.375 456.101562 Z M 108.375 456.101562 "/>
<path style=" stroke:none;fill-rule:nonzero;fill:rgb(100%,70.980394%,54.901963%);fill-opacity:1;" d="M 54.796875 467.109375 C 54.71875 464.667969 57.128906 462.914062 59.433594 463.730469 C 64.242188 465.425781 72.222656 468.398438 78.230469 471.398438 C 87.429688 475.996094 95.097656 475.804688 97.011719 475.035156 C 98.929688 474.273438 105.925781 472.449219 106.503906 473.695312 C 107.078125 474.941406 106.503906 475.457031 106.503906 475.457031 C 106.503906 475.457031 108.128906 475.917969 107.84375 476.769531 L 107.558594 477.621094 C 107.558594 477.621094 108.101562 478.960938 107.878906 479.726562 C 107.652344 480.492188 106.117188 481.449219 106.117188 481.449219 C 106.117188 481.449219 106.214844 482.503906 105.828125 482.980469 C 105.445312 483.460938 101.878906 483.652344 100.453125 483.554688 C 99.027344 483.457031 94.8125 480.875 93.277344 480.96875 C 91.742188 481.066406 66.921875 483.648438 60.214844 479.054688 C 56.035156 476.1875 54.910156 470.996094 54.792969 467.105469 Z M 54.796875 467.109375 "/>
<path style=" stroke:none;fill-rule:nonzero;fill:rgb(100%,70.980394%,54.901963%);fill-opacity:1;" d="M 726.726562 441.410156 C 726.234375 442.285156 730.199219 446.882812 733.996094 449.167969 C 737.210938 451.109375 745.105469 454.785156 747.441406 455.855469 L 753.890625 445.796875 C 752.734375 444.828125 751.492188 443.71875 750.550781 442.636719 C 748.207031 439.984375 741.007812 433.511719 740.074219 434.5625 C 739.144531 435.601562 743.191406 441.035156 742.4375 441.152344 C 741.6875 441.273438 737.796875 437.980469 736.257812 436.441406 C 734.699219 434.910156 731.914062 431.085938 730.65625 431.277344 C 729.382812 431.472656 729.195312 433.339844 729.195312 433.339844 C 729.195312 433.339844 728.300781 431.753906 727.410156 432.5 C 726.527344 433.238281 727.300781 436.054688 727.300781 436.054688 C 727.300781 436.054688 726.90625 435.125 726.132812 436.175781 C 725.355469 437.253906 727.949219 441.035156 727.949219 441.035156 C 727.949219 441.035156 727.203125 440.511719 726.726562 441.402344 Z M 726.726562 441.410156 "/>
<path style=" stroke:none;fill-rule:nonzero;fill:rgb(0%,0%,0%);fill-opacity:1;" d="M 827.917969 381.746094 C 836.285156 382.476562 843.546875 389.578125 843.648438 399.726562 C 843.75 409.875 845.589844 415.09375 851.730469 413.914062 C 851.730469 413.914062 834.539062 423.878906 811.886719 415.085938 C 811.886719 415.085938 814.722656 411.722656 815.121094 404.097656 C 815.519531 396.476562 827.917969 381.746094 827.917969 381.746094 Z M 827.917969 381.746094 "/>
<path style=" stroke:none;fill-rule:nonzero;fill:rgb(98.823529%,92.54902%,42.745098%);fill-opacity:1;" d="M 783.929688 485.421875 C 789.261719 488.285156 795.96875 486.277344 798.835938 480.949219 L 820.394531 440.910156 C 823.265625 435.582031 821.253906 428.878906 815.921875 426.011719 C 810.59375 423.144531 803.882812 425.15625 801.015625 430.480469 L 779.457031 470.523438 C 776.589844 475.851562 778.601562 482.554688 783.929688 485.421875 Z M 783.929688 485.421875 "/>
<path style=" stroke:none;fill-rule:nonzero;fill:rgb(18.82353%,18.82353%,18.82353%);fill-opacity:1;" d="M 832.933594 498.746094 C 840.136719 508.175781 842.851562 527.71875 838.257812 548.777344 C 833.664062 569.832031 832.109375 583.675781 832.109375 583.675781 C 830.910156 593.421875 822.035156 600.351562 812.285156 599.152344 C 802.53125 597.957031 795.597656 589.085938 796.796875 579.339844 L 804.121094 498.742188 L 832.933594 498.742188 Z M 832.933594 498.746094 "/>
<path style=" stroke:none;fill-rule:nonzero;fill:rgb(1.176471%,49.411765%,90.196079%);fill-opacity:1;" d="M 834.519531 421.449219 L 853.78125 430.164062 C 853.78125 430.164062 849.5 479.714844 849.054688 485.132812 C 848.613281 490.554688 850.269531 498.742188 850.269531 498.742188 L 804.121094 498.742188 C 804.121094 498.742188 804.671875 472.191406 801.574219 464.78125 C 799.476562 459.761719 798.03125 456.707031 799.25 450.953125 C 800.464844 445.199219 809.375 435.03125 807.933594 425.074219 L 817.980469 421.855469 L 834.519531 421.441406 Z M 834.519531 421.449219 "/>
<path style=" stroke:none;fill-rule:nonzero;fill:rgb(98.823529%,92.54902%,42.745098%);fill-opacity:1;" d="M 869.230469 493.414062 C 874.917969 491.335938 877.863281 484.984375 875.78125 479.304688 L 860.136719 436.605469 C 858.058594 430.921875 851.703125 427.980469 846.019531 430.058594 C 840.332031 432.136719 837.390625 438.488281 839.46875 444.171875 L 855.113281 486.867188 C 857.195312 492.550781 863.546875 495.496094 869.230469 493.414062 Z M 869.230469 493.414062 "/>
<path style=" stroke:none;fill-rule:nonzero;fill:rgb(0%,0%,0%);fill-opacity:1;" d="M 815.660156 392.734375 C 815.660156 392.734375 813.042969 386.292969 819.339844 384.339844 Z M 815.660156 392.734375 "/>
<path style=" stroke:none;fill-rule:nonzero;fill:rgb(100%,70.980394%,54.901963%);fill-opacity:1;" d="M 817.988281 399.46875 L 817.988281 421.859375 C 817.988281 421.859375 818.4375 426.773438 824.269531 427.207031 C 829.308594 427.585938 832.523438 424.269531 833.875 422.503906 L 834.585938 421.460938 L 834.601562 421.445312 L 832.222656 399.46875 L 817.980469 399.46875 Z M 817.988281 399.46875 "/>
<path style=" stroke:none;fill-rule:nonzero;fill:rgb(100%,70.980394%,54.901963%);fill-opacity:1;" d="M 817.992188 419.308594 L 827.921875 408.519531 L 817.980469 412.25 Z M 817.992188 419.308594 "/>
<path style=" stroke:none;fill-rule:nonzero;fill:rgb(100%,70.980394%,54.901963%);fill-opacity:1;" d="M 827.835938 410.914062 C 823.199219 413.644531 817.722656 413.640625 814.414062 411.421875 C 811.113281 409.214844 811.65625 404.125 812.640625 400.894531 C 812.640625 400.894531 812.644531 400.886719 812.648438 400.867188 C 812.851562 400.203125 813.144531 399.261719 813.46875 398.199219 C 814.734375 394.027344 816.601562 387.84375 816.601562 387.84375 C 817.417969 384.582031 826.777344 377.234375 835.636719 386.8125 C 844.496094 396.40625 832.480469 408.175781 827.84375 410.914062 Z M 827.835938 410.914062 "/>
<path style=" stroke:none;fill-rule:nonzero;fill:rgb(0%,0%,0%);fill-opacity:1;" d="M 816.894531 386.527344 C 816.894531 386.527344 817.015625 390.441406 822.503906 393.054688 C 827.988281 395.671875 833.195312 399.671875 832.539062 405.453125 C 831.882812 411.234375 833.867188 414.492188 833.867188 414.492188 C 833.867188 414.492188 834.683594 407.292969 838.316406 401.191406 C 839.726562 398.824219 840.964844 393.832031 838.621094 389.53125 C 834.925781 382.742188 825.390625 377.578125 816.898438 386.53125 Z M 816.894531 386.527344 "/>
<path style=" stroke:none;fill-rule:nonzero;fill:rgb(100%,70.980394%,54.901963%);fill-opacity:1;" d="M 831.597656 404.207031 C 830.414062 405.949219 830.082031 407.1875 831.449219 408.113281 C 832.820312 409.039062 835.140625 408.820312 836.324219 407.078125 C 837.503906 405.335938 837.347656 403.171875 835.980469 402.246094 C 834.609375 401.324219 832.777344 402.464844 831.597656 404.207031 Z M 831.597656 404.207031 "/>
<path style=" stroke:none;fill-rule:nonzero;fill:rgb(18.82353%,18.82353%,18.82353%);fill-opacity:1;" d="M 790.414062 675.378906 L 821.671875 675.378906 L 832.40625 583.546875 L 832.542969 581.445312 C 832.542969 571.460938 824.3125 563.414062 814.253906 563.714844 C 805.1875 563.972656 797.585938 571.351562 797.050781 580.414062 L 790.417969 675.378906 Z M 790.414062 675.378906 "/>
<path style=" stroke:none;fill-rule:nonzero;fill:rgb(18.82353%,18.82353%,18.82353%);fill-opacity:1;" d="M 847.496094 675.378906 L 877.328125 675.378906 L 867.863281 580.523438 L 867.835938 580.195312 C 867.203125 570.980469 859.507812 563.699219 850.125 563.699219 C 840.738281 563.699219 832.371094 571.636719 832.371094 581.445312 C 832.371094 581.992188 832.394531 582.53125 832.453125 583.054688 L 847.5 675.378906 Z M 847.496094 675.378906 "/>
<path style=" stroke:none;fill-rule:nonzero;fill:rgb(1.176471%,49.411765%,90.196079%);fill-opacity:1;" d="M 744.414062 460.585938 L 780.921875 483.675781 L 783.078125 485.46875 C 787.480469 488.519531 793.929688 486.933594 797.398438 481.933594 C 800.863281 476.9375 800.078125 470.351562 795.679688 467.304688 L 754.789062 444.402344 L 753.886719 445.800781 L 747.4375 455.859375 L 744.414062 460.59375 Z M 744.414062 460.585938 "/>
<path style=" stroke:none;fill-rule:nonzero;fill:rgb(18.82353%,18.82353%,18.82353%);fill-opacity:1;" d="M 818.59375 498.753906 L 819.007812 501.339844 L 832.402344 583.105469 C 833.425781 592.878906 842.179688 599.957031 851.957031 598.933594 C 861.71875 597.914062 868.820312 589.164062 867.792969 579.390625 C 867.792969 579.390625 866.179688 565.558594 865.917969 544 C 865.707031 527.304688 861.921875 513.835938 855.96875 505.121094 C 854.230469 502.589844 852.320312 500.453125 850.269531 498.75 L 818.59375 498.75 Z M 818.59375 498.753906 "/>
<path style=" stroke:none;fill-rule:nonzero;fill:rgb(100%,70.980394%,54.901963%);fill-opacity:1;" d="M 883.332031 695.523438 L 860.304688 695.523438 L 857.316406 690.980469 L 857.386719 695.523438 L 852.3125 695.523438 L 852.769531 682.390625 L 851.65625 675.375 L 870.414062 675.375 L 870.480469 682.390625 Z M 883.332031 695.523438 "/>
<path style=" stroke:none;fill-rule:nonzero;fill:rgb(70.588237%,84.705883%,94.509804%);fill-opacity:1;" d="M 817.277344 421.769531 L 818.433594 445.3125 L 833.875 422.507812 C 832.519531 424.277344 829.304688 427.59375 824.269531 427.207031 C 818.433594 426.777344 817.277344 421.769531 817.277344 421.769531 Z M 817.277344 421.769531 "/>
<path style=" stroke:none;fill-rule:nonzero;fill:rgb(1.176471%,49.411765%,90.196079%);fill-opacity:1;" d="M 834.464844 420.175781 L 822.953125 427.019531 L 825.382812 431.277344 L 836.085938 422.160156 Z M 834.464844 420.175781 "/>
<path style=" stroke:none;fill-rule:nonzero;fill:rgb(1.176471%,49.411765%,90.196079%);fill-opacity:1;" d="M 817.992188 421.152344 L 822.953125 427.019531 L 819.957031 430.632812 L 816.832031 422.234375 Z M 817.992188 421.152344 "/>
<path style=" stroke:none;fill-rule:nonzero;fill:rgb(1.176471%,49.411765%,90.196079%);fill-opacity:1;" d="M 756.101562 493.738281 L 818.097656 496.335938 L 803.867188 449.261719 L 741.875 446.660156 Z M 756.101562 493.738281 "/>
<path style=" stroke:none;fill-rule:nonzero;fill:rgb(70.588237%,84.705883%,94.509804%);fill-opacity:1;" d="M 817.515625 494.054688 L 838.539062 476.984375 L 778.578125 474.472656 L 755.519531 491.460938 Z M 817.515625 494.054688 "/>
<path style=" stroke:none;fill-rule:nonzero;fill:rgb(70.588237%,84.705883%,94.509804%);fill-opacity:1;" d="M 757.320312 492.761719 L 819.3125 495.359375 L 805.078125 448.28125 L 743.085938 445.683594 Z M 757.320312 492.761719 "/>
<path style=" stroke:none;fill-rule:nonzero;fill:rgb(1.176471%,49.411765%,90.196079%);fill-opacity:1;" d="M 743.085938 445.683594 L 741.875 446.660156 L 803.867188 449.261719 L 818.097656 496.335938 L 819.3125 495.363281 L 805.078125 448.28125 Z M 743.085938 445.683594 "/>
<path style=" stroke:none;fill-rule:nonzero;fill:rgb(70.588237%,84.705883%,94.509804%);fill-opacity:1;" d="M 838.539062 476.984375 L 839.121094 479.265625 L 818.097656 496.335938 L 817.410156 494.050781 Z M 838.539062 476.984375 "/>
<path style=" stroke:none;fill-rule:nonzero;fill:rgb(1.176471%,49.411765%,90.196079%);fill-opacity:1;" d="M 770.476562 471.628906 C 770.40625 473.308594 773.425781 474.800781 777.222656 474.960938 C 781.019531 475.117188 784.152344 473.886719 784.222656 472.210938 C 784.289062 470.53125 781.269531 469.039062 777.472656 468.878906 C 773.675781 468.722656 770.542969 469.953125 770.476562 471.628906 Z M 770.476562 471.628906 "/>
<path style=" stroke:none;fill-rule:nonzero;fill:rgb(100%,70.980394%,54.901963%);fill-opacity:1;" d="M 800.5 695.523438 L 806.003906 691.429688 L 805.53125 695.523438 L 810.660156 695.523438 L 813.175781 682.390625 L 814.53125 675.375 L 794.664062 675.375 L 793.902344 682.390625 L 777.960938 695.523438 Z M 800.5 695.523438 "/>
<path style=" stroke:none;fill-rule:nonzero;fill:rgb(0%,0%,0%);fill-opacity:1;" d="M 870.480469 682.386719 L 883.332031 695.523438 L 860.304688 695.523438 L 857.316406 690.980469 L 857.386719 695.523438 L 852.3125 695.523438 L 852.765625 682.386719 Z M 870.480469 682.386719 "/>
<path style=" stroke:none;fill-rule:nonzero;fill:rgb(0%,0%,0%);fill-opacity:1;" d="M 800.5 695.523438 L 806.003906 691.429688 L 805.53125 695.523438 L 810.660156 695.523438 L 813.175781 682.386719 L 793.902344 682.386719 L 777.960938 695.523438 Z M 800.5 695.523438 "/>
<path style=" stroke:none;fill-rule:nonzero;fill:rgb(100%,70.980394%,54.901963%);fill-opacity:1;" d="M 792.5 482.53125 C 791.601562 483.449219 792.570312 485.058594 792.570312 485.058594 C 792.570312 485.058594 790.898438 484.320312 790.644531 485.441406 C 790.394531 486.480469 792.375 488.125 792.628906 488.339844 C 792.441406 488.25 791.804688 488.023438 791.824219 489.160156 C 791.835938 490.414062 795.777344 491.808594 796.148438 491.9375 C 796.007812 491.957031 795.285156 492.070312 795.414062 492.972656 C 795.566406 493.976562 801.484375 495.292969 805.886719 494.859375 C 809.605469 494.488281 818.089844 492.695312 820.628906 492.152344 L 819.957031 480.261719 C 818.402344 480.1875 816.664062 480.023438 815.238281 479.714844 C 811.761719 478.988281 802.125 478.125 802.007812 479.523438 C 801.882812 480.90625 808.375 482.84375 807.847656 483.386719 C 807.316406 483.921875 802.230469 483.621094 800.082031 483.324219 C 797.910156 483.019531 793.382812 481.621094 792.5 482.53125 Z M 792.5 482.53125 "/>
<path style=" stroke:none;fill-rule:nonzero;fill:rgb(98.823529%,92.54902%,42.745098%);fill-opacity:1;" d="M 819.75 476.671875 L 819.960938 480.265625 L 820.632812 492.15625 L 820.8125 495.3125 L 866.949219 494.546875 C 872.304688 494.363281 876.519531 489.242188 876.316406 483.167969 C 876.09375 477.082031 871.53125 472.277344 866.160156 472.46875 L 862.6875 473.058594 L 862.667969 473.070312 L 819.753906 476.671875 Z M 819.75 476.671875 "/>
</g>
</svg>
